<svg width="30" height="30" viewBox="0 0 30 30" fill="none" xmlns="http://www.w3.org/2000/svg">
<path d="M14.375 8.75C15.2038 8.75 15.9987 9.07924 16.5847 9.66529C17.1708 10.2513 17.5 11.0462 17.5 11.875C17.5 12.2854 17.4192 12.6917 17.2621 13.0709C17.1051 13.45 16.8749 13.7945 16.5847 14.0847C16.2945 14.3749 15.95 14.6051 15.5709 14.7621C15.1917 14.9192 14.7854 15 14.375 15C13.5462 15 12.7513 14.6708 12.1653 14.0847C11.5792 13.4987 11.25 12.7038 11.25 11.875C11.25 11.0462 11.5792 10.2513 12.1653 9.66529C12.7513 9.07924 13.5462 8.75 14.375 8.75ZM14.375 10C13.8777 10 13.4008 10.1975 13.0492 10.5492C12.6975 10.9008 12.5 11.3777 12.5 11.875C12.5 12.3723 12.6975 12.8492 13.0492 13.2008C13.4008 13.5525 13.8777 13.75 14.375 13.75C14.8723 13.75 15.3492 13.5525 15.7008 13.2008C16.0525 12.8492 16.25 12.3723 16.25 11.875C16.25 11.3777 16.0525 10.9008 15.7008 10.5492C15.3492 10.1975 14.8723 10 14.375 10ZM8.5 15.45L14.375 25.1125L20.25 15.45C20.8875 14.375 21.25 13.1875 21.25 11.875C21.25 10.0516 20.5257 8.30295 19.2364 7.01364C17.947 5.72433 16.1984 5 14.375 5C12.5516 5 10.803 5.72433 9.51364 7.01364C8.22433 8.30295 7.5 10.0516 7.5 11.875C7.5 13.1875 7.8625 14.375 8.5 15.45ZM21.3125 16.1L14.375 27.5L7.4375 16.1C6.6875 14.8625 6.25 13.425 6.25 11.875C6.25 9.72012 7.10602 7.65349 8.62976 6.12976C10.1535 4.60602 12.2201 3.75 14.375 3.75C16.5299 3.75 18.5965 4.60602 20.1202 6.12976C21.644 7.65349 22.5 9.72012 22.5 11.875C22.5 13.425 22.0625 14.8625 21.3125 16.1Z" fill="black"/>
</svg>
