<svg width="30" height="30" viewBox="0 0 30 30" fill="none" xmlns="http://www.w3.org/2000/svg">
<path d="M25.7894 20.7352C25.1262 19.5938 24.1406 16.3746 24.1406 12.1875C24.1406 9.76326 23.1776 7.4383 21.4634 5.7241C19.7492 4.0099 17.4242 3.04688 15 3.04688C12.5757 3.04688 10.2508 4.0099 8.53659 5.7241C6.82239 7.4383 5.85936 9.76326 5.85936 12.1875C5.85936 16.3758 4.87264 19.5938 4.20936 20.7352C4.06383 20.9844 3.98661 21.2675 3.98549 21.5561C3.98436 21.8447 4.05938 22.1285 4.20297 22.3788C4.34656 22.6291 4.55363 22.8372 4.8033 22.9819C5.05297 23.1266 5.3364 23.2029 5.62498 23.2031H10.6031C10.7739 24.2455 11.3096 25.1931 12.1146 25.877C12.9196 26.5608 13.9414 26.9362 14.9976 26.9362C16.0539 26.9362 17.0757 26.5608 17.8807 25.877C18.6857 25.1931 19.2214 24.2455 19.3922 23.2031H24.375C24.6634 23.2025 24.9465 23.1259 25.1958 22.981C25.4452 22.8361 25.6519 22.628 25.7952 22.3778C25.9385 22.1275 26.0134 21.8439 26.0121 21.5555C26.0109 21.2672 25.9337 20.9842 25.7883 20.7352H25.7894ZM15 25.5469C14.3143 25.5467 13.6488 25.3152 13.111 24.8899C12.5732 24.4646 12.1945 23.8703 12.0363 23.2031H17.9637C17.8054 23.8703 17.4268 24.4646 16.889 24.8899C16.3512 25.3152 15.6856 25.5467 15 25.5469ZM24.5754 21.6797C24.5561 21.7156 24.5273 21.7455 24.4922 21.7662C24.457 21.7868 24.4169 21.7974 24.3762 21.7969H5.62498C5.58423 21.7974 5.54411 21.7868 5.50898 21.7662C5.47385 21.7455 5.44507 21.7156 5.42576 21.6797C5.40519 21.6441 5.39436 21.6036 5.39436 21.5625C5.39436 21.5214 5.40519 21.4809 5.42576 21.4453C6.31287 19.9219 7.26561 16.3699 7.26561 12.1875C7.26561 10.1362 8.08048 8.16895 9.53096 6.71847C10.9814 5.26799 12.9487 4.45312 15 4.45312C17.0513 4.45312 19.0185 5.26799 20.469 6.71847C21.9195 8.16895 22.7344 10.1362 22.7344 12.1875C22.7344 16.3687 23.6883 19.916 24.5754 21.4453C24.5959 21.4809 24.6068 21.5214 24.6068 21.5625C24.6068 21.6036 24.5959 21.6441 24.5754 21.6797Z" fill="#FF8A00"/>
</svg>
