<svg width="50" height="50" viewBox="0 0 50 50" fill="none" xmlns="http://www.w3.org/2000/svg">
<path d="M35.4167 29.1667C35.9692 29.1667 36.4991 28.9472 36.8898 28.5565C37.2805 28.1658 37.5 27.6359 37.5 27.0833C37.5 26.5308 37.2805 26.0009 36.8898 25.6102C36.4991 25.2195 35.9692 25 35.4167 25C34.8641 25 34.3342 25.2195 33.9435 25.6102C33.5528 26.0009 33.3333 26.5308 33.3333 27.0833C33.3333 27.6359 33.5528 28.1658 33.9435 28.5565C34.3342 28.9472 34.8641 29.1667 35.4167 29.1667ZM35.4167 37.5C35.9692 37.5 36.4991 37.2805 36.8898 36.8898C37.2805 36.4991 37.5 35.9692 37.5 35.4167C37.5 34.8641 37.2805 34.3342 36.8898 33.9435C36.4991 33.5528 35.9692 33.3333 35.4167 33.3333C34.8641 33.3333 34.3342 33.5528 33.9435 33.9435C33.5528 34.3342 33.3333 34.8641 33.3333 35.4167C33.3333 35.9692 33.5528 36.4991 33.9435 36.8898C34.3342 37.2805 34.8641 37.5 35.4167 37.5ZM27.0833 27.0833C27.0833 27.6359 26.8638 28.1658 26.4731 28.5565C26.0824 28.9472 25.5525 29.1667 25 29.1667C24.4475 29.1667 23.9176 28.9472 23.5269 28.5565C23.1362 28.1658 22.9167 27.6359 22.9167 27.0833C22.9167 26.5308 23.1362 26.0009 23.5269 25.6102C23.9176 25.2195 24.4475 25 25 25C25.5525 25 26.0824 25.2195 26.4731 25.6102C26.8638 26.0009 27.0833 26.5308 27.0833 27.0833ZM27.0833 35.4167C27.0833 35.9692 26.8638 36.4991 26.4731 36.8898C26.0824 37.2805 25.5525 37.5 25 37.5C24.4475 37.5 23.9176 37.2805 23.5269 36.8898C23.1362 36.4991 22.9167 35.9692 22.9167 35.4167C22.9167 34.8641 23.1362 34.3342 23.5269 33.9435C23.9176 33.5528 24.4475 33.3333 25 33.3333C25.5525 33.3333 26.0824 33.5528 26.4731 33.9435C26.8638 34.3342 27.0833 34.8641 27.0833 35.4167ZM14.5833 29.1667C15.1359 29.1667 15.6658 28.9472 16.0565 28.5565C16.4472 28.1658 16.6667 27.6359 16.6667 27.0833C16.6667 26.5308 16.4472 26.0009 16.0565 25.6102C15.6658 25.2195 15.1359 25 14.5833 25C14.0308 25 13.5009 25.2195 13.1102 25.6102C12.7195 26.0009 12.5 26.5308 12.5 27.0833C12.5 27.6359 12.7195 28.1658 13.1102 28.5565C13.5009 28.9472 14.0308 29.1667 14.5833 29.1667ZM14.5833 37.5C15.1359 37.5 15.6658 37.2805 16.0565 36.8898C16.4472 36.4991 16.6667 35.9692 16.6667 35.4167C16.6667 34.8641 16.4472 34.3342 16.0565 33.9435C15.6658 33.5528 15.1359 33.3333 14.5833 33.3333C14.0308 33.3333 13.5009 33.5528 13.1102 33.9435C12.7195 34.3342 12.5 34.8641 12.5 35.4167C12.5 35.9692 12.7195 36.4991 13.1102 36.8898C13.5009 37.2805 14.0308 37.5 14.5833 37.5Z" fill="black"/>
<path fill-rule="evenodd" clip-rule="evenodd" d="M14.5833 3.64583C14.9977 3.64583 15.3952 3.81045 15.6882 4.10348C15.9812 4.39651 16.1458 4.79393 16.1458 5.20833V6.79792C17.525 6.77083 19.0438 6.77083 20.7146 6.77083H29.2833C30.9563 6.77083 32.475 6.77083 33.8542 6.79792V5.20833C33.8542 4.79393 34.0188 4.39651 34.3118 4.10348C34.6048 3.81045 35.0023 3.64583 35.4167 3.64583C35.8311 3.64583 36.2285 3.81045 36.5215 4.10348C36.8146 4.39651 36.9792 4.79393 36.9792 5.20833V6.93125C37.5208 6.97292 38.0333 7.025 38.5188 7.08958C40.9604 7.41875 42.9375 8.11042 44.4979 9.66875C46.0563 11.2292 46.7479 13.2063 47.0771 15.6479C47.3958 18.0229 47.3958 21.0542 47.3958 24.8833V29.2833C47.3958 33.1125 47.3958 36.1458 47.0771 38.5188C46.7479 40.9604 46.0563 42.9375 44.4979 44.4979C42.9375 46.0562 40.9604 46.7479 38.5188 47.0771C36.1438 47.3958 33.1125 47.3958 29.2833 47.3958H20.7188C16.8896 47.3958 13.8563 47.3958 11.4833 47.0771C9.04168 46.7479 7.0646 46.0562 5.50418 44.4979C3.94585 42.9375 3.25418 40.9604 2.92501 38.5188C2.60626 36.1438 2.60626 33.1125 2.60626 29.2833V24.8833C2.60626 21.0542 2.60626 18.0208 2.92501 15.6479C3.25418 13.2063 3.94585 11.2292 5.50418 9.66875C7.0646 8.11042 9.04168 7.41875 11.4833 7.08958C11.9688 7.025 12.4833 6.97292 13.0229 6.93125V5.20833C13.0229 4.79429 13.1873 4.39718 13.4798 4.10422C13.7724 3.81125 14.1693 3.64639 14.5833 3.64583ZM11.8958 10.1875C9.8021 10.4688 8.59376 10.9979 7.71251 11.8792C6.83126 12.7604 6.3021 13.9688 6.02085 16.0646C5.97293 16.4187 5.93335 16.7937 5.90001 17.1875H44.1C44.0667 16.7917 44.0271 16.4187 43.9792 16.0625C43.6979 13.9688 43.1688 12.7604 42.2875 11.8792C41.4063 10.9979 40.1979 10.4688 38.1021 10.1875C35.9625 9.9 33.1396 9.89583 29.1667 9.89583H20.8333C16.8604 9.89583 14.0396 9.9 11.8958 10.1875ZM5.72918 25C5.72918 23.2208 5.72918 21.6729 5.75626 20.3125H44.2438C44.2708 21.6729 44.2708 23.2208 44.2708 25V29.1667C44.2708 33.1396 44.2667 35.9625 43.9792 38.1042C43.6979 40.1979 43.1688 41.4062 42.2875 42.2875C41.4063 43.1687 40.1979 43.6979 38.1021 43.9792C35.9625 44.2667 33.1396 44.2708 29.1667 44.2708H20.8333C16.8604 44.2708 14.0396 44.2667 11.8958 43.9792C9.8021 43.6979 8.59376 43.1687 7.71251 42.2875C6.83126 41.4062 6.3021 40.1979 6.02085 38.1021C5.73335 35.9625 5.72918 33.1396 5.72918 29.1667V25Z" fill="black" fill-opacity="0.56"/>
</svg>
