<svg width="30" height="30" viewBox="0 0 30 30" fill="none" xmlns="http://www.w3.org/2000/svg">
<path fill-rule="evenodd" clip-rule="evenodd" d="M9.4975 5.60875C9.83125 3.97125 11.2888 2.8125 12.9575 2.8125H17.0425C18.7112 2.8125 20.1675 3.97125 20.5025 5.60875C20.5394 5.78907 20.6359 5.95171 20.7765 6.07052C20.9171 6.18933 21.0936 6.25739 21.2775 6.26375H21.3188C23.0725 6.34125 24.42 6.55625 25.545 7.295C26.2538 7.76 26.8638 8.3575 27.3388 9.05625C27.93 9.92375 28.19 10.9213 28.315 12.1263C28.4375 13.305 28.4375 14.7813 28.4375 16.6513V16.7575C28.4375 18.6275 28.4375 20.105 28.315 21.2825C28.19 22.4875 27.93 23.485 27.3388 24.3537C26.8623 25.0529 26.2527 25.6514 25.545 26.115C24.6663 26.6913 23.6575 26.9462 22.435 27.0675C21.2375 27.1875 19.7362 27.1875 17.8287 27.1875H12.1713C10.2638 27.1875 8.7625 27.1875 7.565 27.0675C6.3425 26.9462 5.33375 26.6925 4.455 26.115C3.74713 25.651 3.13761 25.0521 2.66125 24.3525C2.07 23.485 1.81 22.4875 1.685 21.2825C1.5625 20.105 1.5625 18.6275 1.5625 16.7575V16.6513C1.5625 14.7813 1.5625 13.305 1.685 12.1263C1.81 10.9213 2.07 9.92375 2.66125 9.05625C3.13761 8.35665 3.74713 7.75774 4.455 7.29375C5.58 6.55625 6.9275 6.34125 8.68125 6.265L8.7025 6.26375H8.7225C8.90645 6.25739 9.08291 6.18933 9.22348 6.07052C9.36406 5.95171 9.46057 5.78907 9.4975 5.60875ZM12.9575 4.6875C12.1575 4.6875 11.4862 5.24125 11.335 5.9825C11.0912 7.1825 10.0262 8.1275 8.745 8.13875C7.06 8.21375 6.1575 8.42 5.4825 8.8625C4.9811 9.19153 4.54918 9.6158 4.21125 10.1112C3.86625 10.6175 3.65875 11.2662 3.54875 12.32C3.43875 13.39 3.4375 14.77 3.4375 16.705C3.4375 18.64 3.4375 20.0188 3.55 21.0888C3.65875 22.1425 3.86625 22.7912 4.2125 23.2987C4.5475 23.7912 4.97875 24.2163 5.48375 24.5475C6.005 24.8888 6.6725 25.095 7.75125 25.2025C8.84375 25.3113 10.2512 25.3125 12.2225 25.3125H17.7775C19.7475 25.3125 21.155 25.3125 22.2487 25.2025C23.3275 25.095 23.995 24.89 24.5163 24.5475C25.0213 24.2163 25.4538 23.7913 25.7888 23.2975C26.1338 22.7913 26.3412 22.1425 26.4512 21.0888C26.5612 20.0188 26.5625 18.6388 26.5625 16.705C26.5625 14.77 26.5625 13.39 26.45 12.32C26.3412 11.2662 26.1337 10.6175 25.7875 10.1112C25.4499 9.61514 25.018 9.19039 24.5163 8.86125C23.8438 8.42 22.9413 8.21375 21.2538 8.13875C19.9738 8.12625 18.9088 7.18375 18.665 5.9825C18.585 5.61284 18.3799 5.28211 18.0843 5.04618C17.7887 4.81024 17.4207 4.68355 17.0425 4.6875H12.9575ZM15 13.4375C14.2541 13.4375 13.5387 13.7338 13.0113 14.2613C12.4838 14.7887 12.1875 15.5041 12.1875 16.25C12.1875 16.9959 12.4838 17.7113 13.0113 18.2387C13.5387 18.7662 14.2541 19.0625 15 19.0625C15.7459 19.0625 16.4613 18.7662 16.9887 18.2387C17.5162 17.7113 17.8125 16.9959 17.8125 16.25C17.8125 15.5041 17.5162 14.7887 16.9887 14.2613C16.4613 13.7338 15.7459 13.4375 15 13.4375ZM10.3125 16.25C10.3125 15.0068 10.8064 13.8145 11.6854 12.9354C12.5645 12.0564 13.7568 11.5625 15 11.5625C16.2432 11.5625 17.4355 12.0564 18.3146 12.9354C19.1936 13.8145 19.6875 15.0068 19.6875 16.25C19.6875 17.4932 19.1936 18.6855 18.3146 19.5646C17.4355 20.4436 16.2432 20.9375 15 20.9375C13.7568 20.9375 12.5645 20.4436 11.6854 19.5646C10.8064 18.6855 10.3125 17.4932 10.3125 16.25ZM21.5625 12.5C21.5625 12.2514 21.6613 12.0129 21.8371 11.8371C22.0129 11.6613 22.2514 11.5625 22.5 11.5625H23.75C23.9986 11.5625 24.2371 11.6613 24.4129 11.8371C24.5887 12.0129 24.6875 12.2514 24.6875 12.5C24.6875 12.7486 24.5887 12.9871 24.4129 13.1629C24.2371 13.3387 23.9986 13.4375 23.75 13.4375H22.5C22.2514 13.4375 22.0129 13.3387 21.8371 13.1629C21.6613 12.9871 21.5625 12.7486 21.5625 12.5Z" fill="black"/>
</svg>
