<svg width="30" height="30" viewBox="0 0 30 30" fill="none" xmlns="http://www.w3.org/2000/svg">
<path d="M14.0625 0C15.3613 0 16.6064 0.166016 17.7979 0.498047C18.9893 0.830078 20.1123 1.29883 21.167 1.9043C22.2217 2.50977 23.1689 3.24219 24.0088 4.10156C24.8486 4.96094 25.5811 5.91309 26.2061 6.95801C26.8311 8.00293 27.3047 9.12109 27.627 10.3125C27.9492 11.5039 28.1152 12.7539 28.125 14.0625C28.125 15.3613 27.959 16.6064 27.627 17.7979C27.2949 18.9893 26.8262 20.1123 26.2207 21.167C25.6152 22.2217 24.8828 23.1689 24.0234 24.0088C23.1641 24.8486 22.2119 25.5811 21.167 26.2061C20.1221 26.8311 19.0039 27.3047 17.8125 27.627C16.6211 27.9492 15.3711 28.1152 14.0625 28.125C12.7637 28.125 11.5186 27.959 10.3271 27.627C9.13574 27.2949 8.0127 26.8262 6.95801 26.2207C5.90332 25.6152 4.95605 24.8828 4.11621 24.0234C3.27637 23.1641 2.54395 22.2119 1.91895 21.167C1.29395 20.1221 0.820312 19.0039 0.498047 17.8125C0.175781 16.6211 0.00976563 15.3711 0 14.0625C0 12.7637 0.166016 11.5186 0.498047 10.3271C0.830078 9.13574 1.29883 8.0127 1.9043 6.95801C2.50977 5.90332 3.24219 4.95605 4.10156 4.11621C4.96094 3.27637 5.91309 2.54395 6.95801 1.91895C8.00293 1.29395 9.12109 0.820312 10.3125 0.498047C11.5039 0.175781 12.7539 0.00976563 14.0625 0ZM14.0625 26.25C15.1758 26.25 16.25 26.1035 17.2852 25.8105C18.3203 25.5176 19.292 25.1074 20.2002 24.5801C21.1084 24.0527 21.9336 23.418 22.6758 22.6758C23.418 21.9336 24.0527 21.1133 24.5801 20.2148C25.1074 19.3164 25.5176 18.3447 25.8105 17.2998C26.1035 16.2549 26.25 15.1758 26.25 14.0625C26.25 12.9492 26.1035 11.875 25.8105 10.8398C25.5176 9.80469 25.1074 8.83301 24.5801 7.9248C24.0527 7.0166 23.418 6.19141 22.6758 5.44922C21.9336 4.70703 21.1133 4.07227 20.2148 3.54492C19.3164 3.01758 18.3447 2.60742 17.2998 2.31445C16.2549 2.02148 15.1758 1.875 14.0625 1.875C12.9395 1.875 11.8604 2.02148 10.8252 2.31445C9.79004 2.60742 8.82324 3.01758 7.9248 3.54492C7.02637 4.07227 6.20117 4.70703 5.44922 5.44922C4.69727 6.19141 4.0625 7.01172 3.54492 7.91016C3.02734 8.80859 2.61719 9.78027 2.31445 10.8252C2.01172 11.8701 1.86523 12.9492 1.875 14.0625C1.875 15.1758 2.02148 16.25 2.31445 17.2852C2.60742 18.3203 3.01758 19.292 3.54492 20.2002C4.07227 21.1084 4.70703 21.9336 5.44922 22.6758C6.19141 23.418 7.01172 24.0527 7.91016 24.5801C8.80859 25.1074 9.78027 25.5176 10.8252 25.8105C11.8701 26.1035 12.9492 26.25 14.0625 26.25ZM13.125 7.5H15V16.875H13.125V7.5ZM13.125 18.75H15V20.625H13.125V18.75Z" fill="#F24E1E"/>
</svg>
