<svg width="30" height="30" viewBox="0 0 30 30" fill="none" xmlns="http://www.w3.org/2000/svg">
<path d="M10 13.125C11.7259 13.125 13.125 11.7259 13.125 10C13.125 8.27411 11.7259 6.875 10 6.875C8.27411 6.875 6.875 8.27411 6.875 10C6.875 11.7259 8.27411 13.125 10 13.125Z" stroke="black" stroke-width="1.25" stroke-linecap="round"/>
<path d="M14.71 10.625C14.873 10.3384 15.091 10.0868 15.3516 9.88483C15.6121 9.68283 15.9101 9.53436 16.2283 9.44798C16.5465 9.36159 16.8786 9.339 17.2055 9.3815C17.5325 9.42399 17.8478 9.53074 18.1333 9.69559C18.4189 9.86045 18.669 10.0802 18.8692 10.3421C19.0695 10.604 19.216 10.9029 19.3003 11.2216C19.3845 11.5404 19.4049 11.8727 19.3603 12.1993C19.3156 12.526 19.2068 12.8406 19.04 13.125C18.7061 13.6945 18.1605 14.1089 17.5223 14.2776C16.8841 14.4463 16.205 14.3558 15.6333 14.0257C15.0616 13.6956 14.6436 13.1528 14.4706 12.5157C14.2977 11.8786 14.3837 11.1989 14.71 10.625Z" stroke="black" stroke-width="1.25"/>
<path d="M15.625 22.5H4.37501V23.75H15.625V22.5ZM3.86001 21.9825C4.02251 20.965 4.41251 19.5187 5.33001 18.3387C6.22376 17.1887 7.64876 16.25 10 16.25V15C7.25126 15 5.46751 16.125 4.34251 17.5713C3.24251 18.9888 2.80376 20.6712 2.62626 21.785L3.86001 21.9825ZM10 16.25C12.3513 16.25 13.775 17.1875 14.67 18.3387C15.5875 19.5187 15.9775 20.9638 16.14 21.9825L17.3738 21.785C17.1963 20.6725 16.7588 18.9887 15.6575 17.5725C14.5325 16.125 12.7488 15 10 15V16.25ZM4.37501 22.5C4.01001 22.5 3.82126 22.2288 3.86001 21.9825L2.62626 21.785C2.44751 22.9025 3.35876 23.75 4.37501 23.75V22.5ZM15.625 23.75C16.6413 23.75 17.5513 22.9025 17.3738 21.785L16.14 21.9825C16.1788 22.2288 15.99 22.5 15.625 22.5V23.75Z" fill="black"/>
<path d="M14.75 17.4762L14.415 16.9488L13.7713 17.3575L14.2988 17.9075L14.75 17.4762ZM20.4938 22.5H15.625V23.75H20.4938V22.5ZM21.015 21.9225C21.0813 22.1913 20.885 22.5 20.4938 22.5V23.75C21.5813 23.75 22.5188 22.785 22.2275 21.6188L21.015 21.9225ZM16.875 17.5C18.16 17.5 19.0625 18.1287 19.7225 19.0087C20.3975 19.9062 20.7925 21.04 21.015 21.9225L22.2275 21.6188C21.9875 20.6638 21.54 19.3487 20.7225 18.2575C19.8913 17.15 18.65 16.25 16.875 16.25V17.5ZM15.085 18.0037C15.5725 17.695 16.1575 17.5 16.875 17.5V16.25C15.915 16.25 15.0988 16.515 14.415 16.9488L15.085 18.0037ZM14.2988 17.9075C15.4825 19.145 15.9563 20.8313 16.14 21.9825L17.3738 21.785C17.1738 20.535 16.645 18.5525 15.2025 17.0438L14.2988 17.9075ZM16.14 21.9825C16.1788 22.2288 15.99 22.5 15.625 22.5V23.75C16.6413 23.75 17.5513 22.9025 17.3738 21.785L16.14 21.9825Z" fill="black"/>
<path d="M25.625 6.5625H20.625C20.4524 6.5625 20.3125 6.70241 20.3125 6.875C20.3125 7.04759 20.4524 7.1875 20.625 7.1875H25.625C25.7976 7.1875 25.9375 7.04759 25.9375 6.875C25.9375 6.70241 25.7976 6.5625 25.625 6.5625Z" stroke="black" stroke-width="0.625" stroke-linecap="round"/>
<path d="M23.4375 9.375V4.375C23.4375 4.20241 23.2976 4.0625 23.125 4.0625C22.9524 4.0625 22.8125 4.20241 22.8125 4.375V9.375C22.8125 9.54759 22.9524 9.6875 23.125 9.6875C23.2976 9.6875 23.4375 9.54759 23.4375 9.375Z" stroke="black" stroke-width="0.625" stroke-linecap="round"/>
</svg>
