<svg width="382" height="215" viewBox="0 0 382 215" fill="none" xmlns="http://www.w3.org/2000/svg">
<path d="M295.75 69C295.752 69.2563 295.674 69.5069 295.527 69.717C295.38 69.927 295.171 70.086 294.93 70.1719L289.974 71.9742L288.172 76.9297C288.083 77.1689 287.923 77.3752 287.714 77.5209C287.504 77.6666 287.255 77.7447 287 77.7447C286.745 77.7447 286.496 77.6666 286.286 77.5209C286.077 77.3752 285.917 77.1689 285.828 76.9297L284.026 71.9687L279.07 70.1719C278.831 70.0831 278.625 69.9232 278.479 69.7137C278.333 69.5042 278.255 69.2552 278.255 69C278.255 68.7448 278.333 68.4958 278.479 68.2863C278.625 68.0768 278.831 67.9169 279.07 67.8281L284.031 66.0258L285.828 61.0703C285.917 60.8311 286.077 60.6248 286.286 60.4791C286.496 60.3334 286.745 60.2553 287 60.2553C287.255 60.2553 287.504 60.3334 287.714 60.4791C287.923 60.6248 288.083 60.8311 288.172 61.0703L289.974 66.0312L294.93 67.8281C295.171 67.914 295.38 68.073 295.527 68.283C295.674 68.493 295.752 68.7436 295.75 69Z" fill="#FFC700"/>
<path d="M353.75 190C353.752 190.256 353.674 190.507 353.527 190.717C353.38 190.927 353.171 191.086 352.93 191.172L347.974 192.974L346.172 197.93C346.083 198.169 345.923 198.375 345.714 198.521C345.504 198.667 345.255 198.745 345 198.745C344.745 198.745 344.496 198.667 344.286 198.521C344.077 198.375 343.917 198.169 343.828 197.93L342.026 192.969L337.07 191.172C336.831 191.083 336.625 190.923 336.479 190.714C336.333 190.504 336.255 190.255 336.255 190C336.255 189.745 336.333 189.496 336.479 189.286C336.625 189.077 336.831 188.917 337.07 188.828L342.031 187.026L343.828 182.07C343.917 181.831 344.077 181.625 344.286 181.479C344.496 181.333 344.745 181.255 345 181.255C345.255 181.255 345.504 181.333 345.714 181.479C345.923 181.625 346.083 181.831 346.172 182.07L347.974 187.031L352.93 188.828C353.171 188.914 353.38 189.073 353.527 189.283C353.674 189.493 353.752 189.744 353.75 190Z" fill="#FFC700"/>
<g clip-path="url(#clip0_46_114)">
<path d="M319.375 99C319.376 99.1282 319.337 99.2535 319.264 99.3585C319.19 99.4635 319.086 99.543 318.965 99.5859L316.487 100.487L315.586 102.965C315.542 103.084 315.462 103.188 315.357 103.26C315.252 103.333 315.128 103.372 315 103.372C314.872 103.372 314.748 103.333 314.643 103.26C314.538 103.188 314.458 103.084 314.414 102.965L313.513 100.484L311.035 99.5859C310.916 99.5415 310.812 99.4616 310.74 99.3569C310.667 99.2521 310.628 99.1276 310.628 99C310.628 98.8724 310.667 98.7479 310.74 98.6432C310.812 98.5384 310.916 98.4585 311.035 98.4141L313.516 97.5129L314.414 95.0352C314.458 94.9156 314.538 94.8124 314.643 94.7395C314.748 94.6667 314.872 94.6277 315 94.6277C315.128 94.6277 315.252 94.6667 315.357 94.7395C315.462 94.8124 315.542 94.9156 315.586 95.0352L316.487 97.5156L318.965 98.4141C319.086 98.457 319.19 98.5365 319.264 98.6415C319.337 98.7465 319.376 98.8718 319.375 99Z" fill="#FFC700"/>
</g>
<g clip-path="url(#clip1_46_114)">
<path d="M339.375 45C339.376 45.1282 339.337 45.2535 339.264 45.3585C339.19 45.4635 339.086 45.543 338.965 45.5859L336.487 46.4871L335.586 48.9649C335.542 49.0845 335.462 49.1876 335.357 49.2605C335.252 49.3333 335.128 49.3724 335 49.3724C334.872 49.3724 334.748 49.3333 334.643 49.2605C334.538 49.1876 334.458 49.0845 334.414 48.9649L333.513 46.4844L331.035 45.5859C330.916 45.5415 330.812 45.4616 330.74 45.3569C330.667 45.2521 330.628 45.1276 330.628 45C330.628 44.8724 330.667 44.7479 330.74 44.6432C330.812 44.5384 330.916 44.4585 331.035 44.4141L333.516 43.5129L334.414 41.0352C334.458 40.9156 334.538 40.8124 334.643 40.7395C334.748 40.6667 334.872 40.6277 335 40.6277C335.128 40.6277 335.252 40.6667 335.357 40.7395C335.462 40.8124 335.542 40.9156 335.586 41.0352L336.487 43.5156L338.965 44.4141C339.086 44.457 339.19 44.5365 339.264 44.6415C339.337 44.7465 339.376 44.8718 339.375 45Z" fill="#FFC700"/>
</g>
<g clip-path="url(#clip2_46_114)">
<path d="M378.375 164C378.376 164.128 378.337 164.253 378.264 164.358C378.19 164.463 378.086 164.543 377.965 164.586L375.487 165.487L374.586 167.965C374.542 168.084 374.462 168.188 374.357 168.26C374.252 168.333 374.128 168.372 374 168.372C373.872 168.372 373.748 168.333 373.643 168.26C373.538 168.188 373.458 168.084 373.414 167.965L372.513 165.484L370.035 164.586C369.916 164.542 369.812 164.462 369.74 164.357C369.667 164.252 369.628 164.128 369.628 164C369.628 163.872 369.667 163.748 369.74 163.643C369.812 163.538 369.916 163.458 370.035 163.414L372.516 162.513L373.414 160.035C373.458 159.916 373.538 159.812 373.643 159.74C373.748 159.667 373.872 159.628 374 159.628C374.128 159.628 374.252 159.667 374.357 159.74C374.462 159.812 374.542 159.916 374.586 160.035L375.487 162.516L377.965 163.414C378.086 163.457 378.19 163.536 378.264 163.641C378.337 163.746 378.376 163.872 378.375 164Z" fill="#FFC700"/>
</g>
<g clip-path="url(#clip3_46_114)">
<path d="M162.375 15C162.376 15.1282 162.337 15.2535 162.264 15.3585C162.19 15.4635 162.086 15.543 161.965 15.5859L159.487 16.4871L158.586 18.9649C158.542 19.0845 158.462 19.1876 158.357 19.2605C158.252 19.3333 158.128 19.3724 158 19.3724C157.872 19.3724 157.748 19.3333 157.643 19.2605C157.538 19.1876 157.458 19.0845 157.414 18.9649L156.513 16.4844L154.035 15.5859C153.916 15.5415 153.812 15.4616 153.74 15.3569C153.667 15.2521 153.628 15.1276 153.628 15C153.628 14.8724 153.667 14.7479 153.74 14.6432C153.812 14.5384 153.916 14.4585 154.035 14.4141L156.516 13.5129L157.414 11.0352C157.458 10.9156 157.538 10.8124 157.643 10.7395C157.748 10.6667 157.872 10.6277 158 10.6277C158.128 10.6277 158.252 10.6667 158.357 10.7395C158.462 10.8124 158.542 10.9156 158.586 11.0352L159.487 13.5156L161.965 14.4141C162.086 14.457 162.19 14.5365 162.264 14.6415C162.337 14.7465 162.376 14.8718 162.375 15Z" fill="#FFC700"/>
</g>
<g clip-path="url(#clip4_46_114)">
<path d="M19.375 131C19.376 131.128 19.3371 131.253 19.2636 131.358C19.1901 131.464 19.0857 131.543 18.9649 131.586L16.4868 132.487L15.586 134.965C15.5416 135.084 15.4616 135.188 15.3569 135.26C15.2522 135.333 15.1276 135.372 15 135.372C14.8725 135.372 14.7479 135.333 14.6432 135.26C14.5384 135.188 14.4585 135.084 14.4141 134.965L13.5129 132.484L11.0352 131.586C10.9156 131.542 10.8124 131.462 10.7396 131.357C10.6667 131.252 10.6277 131.128 10.6277 131C10.6277 130.872 10.6667 130.748 10.7396 130.643C10.8124 130.538 10.9156 130.458 11.0352 130.414L13.5157 129.513L14.4141 127.035C14.4585 126.916 14.5384 126.812 14.6432 126.74C14.7479 126.667 14.8725 126.628 15 126.628C15.1276 126.628 15.2522 126.667 15.3569 126.74C15.4616 126.812 15.5416 126.916 15.586 127.035L16.4871 129.516L18.9649 130.414C19.0857 130.457 19.1901 130.537 19.2636 130.642C19.3371 130.747 19.376 130.872 19.375 131Z" fill="#FFC700"/>
</g>
<g clip-path="url(#clip5_46_114)">
<path d="M86.375 69C86.376 69.1282 86.3371 69.2535 86.2636 69.3585C86.1901 69.4635 86.0857 69.543 85.9649 69.5859L83.4868 70.4871L82.586 72.9649C82.5416 73.0845 82.4616 73.1876 82.3569 73.2605C82.2522 73.3333 82.1276 73.3724 82 73.3724C81.8725 73.3724 81.7479 73.3333 81.6432 73.2605C81.5384 73.1876 81.4585 73.0845 81.4141 72.9649L80.5129 70.4844L78.0352 69.5859C77.9156 69.5415 77.8124 69.4616 77.7396 69.3569C77.6667 69.2521 77.6277 69.1276 77.6277 69C77.6277 68.8724 77.6667 68.7479 77.7396 68.6432C77.8124 68.5384 77.9156 68.4585 78.0352 68.4141L80.5157 67.5129L81.4141 65.0352C81.4585 64.9156 81.5384 64.8124 81.6432 64.7395C81.7479 64.6667 81.8725 64.6277 82 64.6277C82.1276 64.6277 82.2522 64.6667 82.3569 64.7395C82.4616 64.8124 82.5416 64.9156 82.586 65.0352L83.4871 67.5156L85.9649 68.4141C86.0857 68.457 86.1901 68.5365 86.2636 68.6415C86.3371 68.7465 86.376 68.8718 86.375 69Z" fill="#FFC700"/>
</g>
<path d="M67.1251 159C67.1281 159.385 67.0112 159.76 66.7907 160.075C66.5702 160.39 66.257 160.629 65.8946 160.758L58.4603 163.461L55.7579 170.895C55.6247 171.253 55.3849 171.563 55.0707 171.781C54.7565 172 54.3829 172.117 54.0001 172.117C53.6174 172.117 53.2438 172 52.9295 171.781C52.6153 171.563 52.3755 171.253 52.2423 170.895L49.5388 163.453L42.1056 160.758C41.7468 160.625 41.4373 160.385 41.2187 160.071C41.0002 159.756 40.8831 159.383 40.8831 159C40.8831 158.617 41.0002 158.244 41.2187 157.929C41.4373 157.615 41.7468 157.375 42.1056 157.242L49.547 154.539L52.2423 147.105C52.3755 146.747 52.6153 146.437 52.9295 146.219C53.2438 146 53.6174 145.883 54.0001 145.883C54.3829 145.883 54.7565 146 55.0707 146.219C55.3849 146.437 55.6247 146.747 55.7579 147.105L58.4614 154.547L65.8946 157.242C66.257 157.371 66.5702 157.61 66.7907 157.925C67.0112 158.24 67.1281 158.615 67.1251 159Z" fill="#FFC700"/>
<path d="M238.68 8.28501C239.662 5.83376 240.155 4.60751 241 4.60751C241.845 4.60751 242.337 5.83251 243.32 8.28501L243.366 8.39751C243.921 9.78376 244.199 10.4763 244.766 10.8975C245.331 11.3175 246.075 11.385 247.561 11.5175L247.829 11.5413C250.261 11.7588 251.479 11.8675 251.737 12.6413C251.999 13.4163 251.095 14.2375 249.287 15.88L248.686 16.43C247.771 17.2613 247.314 17.6775 247.101 18.2225C247.061 18.3244 247.028 18.4288 247.001 18.535C246.862 19.1025 246.996 19.7063 247.264 20.9125L247.347 21.2875C247.839 23.5063 248.085 24.615 247.656 25.0938C247.496 25.2723 247.287 25.4008 247.055 25.4638C246.435 25.6338 245.555 24.9163 243.792 23.4813C242.636 22.5388 242.057 22.0675 241.394 21.9613C241.133 21.9196 240.867 21.9196 240.606 21.9613C239.941 22.0675 239.364 22.5388 238.206 23.4813C236.446 24.9163 235.565 25.6338 234.945 25.4638C234.714 25.4005 234.505 25.2721 234.345 25.0938C233.915 24.615 234.161 23.5063 234.652 21.2888L234.736 20.9125C235.004 19.705 235.137 19.1025 234.999 18.5338C234.972 18.4275 234.939 18.3231 234.899 18.2213C234.686 17.6775 234.229 17.2613 233.314 16.4288L232.711 15.88C230.905 14.2375 230.001 13.415 230.261 12.6425C230.522 11.8675 231.739 11.7588 234.171 11.5413L234.439 11.5163C235.926 11.3838 236.669 11.3175 237.235 10.8963C237.801 10.4763 238.079 9.78376 238.635 8.39876L238.68 8.28501Z" fill="#FFC700" fill-opacity="0.25" stroke="#FFC700" stroke-width="0.416667"/>
<path d="M71.2267 37.7617C71.5542 36.9446 71.7183 36.5358 72 36.5358C72.2817 36.5358 72.4458 36.9442 72.7733 37.7617L72.7887 37.7992C72.9737 38.2612 73.0662 38.4921 73.2554 38.6325C73.4437 38.7725 73.6917 38.795 74.1871 38.8392L74.2762 38.8471C75.0871 38.9196 75.4929 38.9558 75.5792 39.2137C75.6662 39.4721 75.365 39.7458 74.7625 40.2933L74.5621 40.4767C74.2571 40.7537 74.1046 40.8925 74.0337 41.0742C74.0204 41.1081 74.0092 41.1429 74.0004 41.1783C73.9542 41.3675 73.9987 41.5687 74.0879 41.9708L74.1158 42.0958C74.2796 42.8354 74.3617 43.205 74.2187 43.3646C74.1652 43.4241 74.0956 43.4669 74.0183 43.4879C73.8117 43.5446 73.5183 43.3054 72.9308 42.8271C72.5454 42.5129 72.3525 42.3558 72.1312 42.3204C72.0443 42.3065 71.9557 42.3065 71.8687 42.3204C71.6471 42.3558 71.4546 42.5129 71.0687 42.8271C70.4821 43.3054 70.1883 43.5446 69.9817 43.4879C69.9045 43.4668 69.8351 43.424 69.7817 43.3646C69.6383 43.205 69.7204 42.8354 69.8842 42.0962L69.9121 41.9708C70.0012 41.5683 70.0458 41.3675 69.9996 41.1779C69.9908 41.1425 69.9796 41.1077 69.9662 41.0737C69.8954 40.8925 69.7429 40.7537 69.4379 40.4762L69.2371 40.2933C68.635 39.7458 68.3337 39.4717 68.4204 39.2142C68.5075 38.9558 68.9129 38.9196 69.7237 38.8471L69.8129 38.8387C70.3087 38.7946 70.5562 38.7725 70.745 38.6321C70.9337 38.4921 71.0262 38.2612 71.2117 37.7996L71.2267 37.7617Z" fill="#FFC700" fill-opacity="0.25" stroke="#FFC700" stroke-width="0.416667"/>
<path d="M71.2267 112.762C71.5542 111.945 71.7183 111.536 72 111.536C72.2817 111.536 72.4458 111.944 72.7733 112.762L72.7887 112.799C72.9737 113.261 73.0662 113.492 73.2554 113.632C73.4437 113.772 73.6917 113.795 74.1871 113.839L74.2762 113.847C75.0871 113.92 75.4929 113.956 75.5792 114.214C75.6662 114.472 75.365 114.746 74.7625 115.293L74.5621 115.477C74.2571 115.754 74.1046 115.892 74.0337 116.074C74.0204 116.108 74.0092 116.143 74.0004 116.178C73.9542 116.367 73.9987 116.569 74.0879 116.971L74.1158 117.096C74.2796 117.835 74.3617 118.205 74.2187 118.365C74.1652 118.424 74.0956 118.467 74.0183 118.488C73.8117 118.545 73.5183 118.305 72.9308 117.827C72.5454 117.513 72.3525 117.356 72.1312 117.32C72.0443 117.307 71.9557 117.307 71.8687 117.32C71.6471 117.356 71.4546 117.513 71.0687 117.827C70.4821 118.305 70.1883 118.545 69.9817 118.488C69.9045 118.467 69.8351 118.424 69.7817 118.365C69.6383 118.205 69.7204 117.835 69.8842 117.096L69.9121 116.971C70.0012 116.568 70.0458 116.367 69.9996 116.178C69.9908 116.142 69.9796 116.108 69.9662 116.074C69.8954 115.892 69.7429 115.754 69.4379 115.476L69.2371 115.293C68.635 114.746 68.3337 114.472 68.4204 114.214C68.5075 113.956 68.9129 113.92 69.7237 113.847L69.8129 113.839C70.3087 113.795 70.5562 113.772 70.745 113.632C70.9337 113.492 71.0262 113.261 71.2117 112.8L71.2267 112.762Z" fill="#FFC700" fill-opacity="0.25" stroke="#FFC700" stroke-width="0.416667"/>
<path d="M12.68 34.285C13.6625 31.8338 14.155 30.6075 15 30.6075C15.845 30.6075 16.3375 31.8325 17.32 34.285L17.3662 34.3975C17.9212 35.7838 18.1987 36.4763 18.7662 36.8975C19.3312 37.3175 20.075 37.385 21.5612 37.5175L21.8287 37.5413C24.2612 37.7588 25.4787 37.8675 25.7375 38.6413C25.9987 39.4163 25.095 40.2375 23.2875 41.88L22.6862 42.43C21.7712 43.2613 21.3137 43.6775 21.1012 44.2225C21.0611 44.3244 21.0277 44.4288 21.0012 44.535C20.8625 45.1025 20.9962 45.7063 21.2637 46.9125L21.3475 47.2875C21.8387 49.5063 22.085 50.615 21.6562 51.0938C21.4955 51.2723 21.2868 51.4008 21.055 51.4638C20.435 51.6338 19.555 50.9163 17.7925 49.4813C16.6362 48.5388 16.0575 48.0675 15.3937 47.9613C15.1329 47.9196 14.8671 47.9196 14.6062 47.9613C13.9412 48.0675 13.3637 48.5388 12.2062 49.4813C10.4462 50.9163 9.56497 51.6338 8.94497 51.4638C8.71362 51.4005 8.50534 51.2721 8.34497 51.0938C7.91497 50.615 8.16122 49.5063 8.65247 47.2888L8.73622 46.9125C9.00372 45.705 9.13747 45.1025 8.99872 44.5338C8.97226 44.4275 8.93886 44.3231 8.89872 44.2213C8.68622 43.6775 8.22872 43.2613 7.31372 42.4288L6.71122 41.88C4.90497 40.2375 4.00122 39.415 4.26122 38.6425C4.52247 37.8675 5.73872 37.7588 8.17122 37.5413L8.43872 37.5163C9.92622 37.3838 10.6687 37.3175 11.235 36.8963C11.8012 36.4763 12.0787 35.7838 12.635 34.3988L12.68 34.285Z" fill="#FFC700" fill-opacity="0.25" stroke="#FFC700" stroke-width="0.416667"/>
<path d="M298.227 181.762C298.554 180.945 298.718 180.536 299 180.536C299.282 180.536 299.446 180.944 299.773 181.762L299.789 181.799C299.974 182.261 300.066 182.492 300.255 182.632C300.444 182.772 300.692 182.795 301.187 182.839L301.276 182.847C302.087 182.92 302.493 182.956 302.579 183.214C302.666 183.472 302.365 183.746 301.762 184.293L301.562 184.477C301.257 184.754 301.105 184.892 301.034 185.074C301.02 185.108 301.009 185.143 301 185.178C300.954 185.367 300.999 185.569 301.088 185.971L301.116 186.096C301.28 186.835 301.362 187.205 301.219 187.365C301.165 187.424 301.096 187.467 301.018 187.488C300.812 187.545 300.518 187.305 299.931 186.827C299.545 186.513 299.352 186.356 299.131 186.32C299.044 186.307 298.956 186.307 298.869 186.32C298.647 186.356 298.455 186.513 298.069 186.827C297.482 187.305 297.188 187.545 296.982 187.488C296.905 187.467 296.835 187.424 296.782 187.365C296.638 187.205 296.72 186.835 296.884 186.096L296.912 185.971C297.001 185.568 297.046 185.367 297 185.178C296.991 185.142 296.98 185.108 296.966 185.074C296.895 184.892 296.743 184.754 296.438 184.476L296.237 184.293C295.635 183.746 295.334 183.472 295.42 183.214C295.507 182.956 295.913 182.92 296.724 182.847L296.813 182.839C297.309 182.795 297.556 182.772 297.745 182.632C297.934 182.492 298.026 182.261 298.212 181.8L298.227 181.762Z" fill="#FFC700" fill-opacity="0.25" stroke="#FFC700" stroke-width="0.416667"/>
<g clip-path="url(#clip6_46_114)">
<mask id="mask0_46_114" style="mask-type:luminance" maskUnits="userSpaceOnUse" x="106" y="23" width="176" height="184">
<path d="M194 31.6667L215.888 47.6333L242.983 47.5833L251.304 73.3667L273.254 89.25L264.833 115L273.254 140.75L251.304 156.633L242.983 182.417L215.888 182.367L194 198.333L172.113 182.367L145.017 182.417L136.696 156.633L114.746 140.75L123.167 115L114.746 89.25L136.696 73.3667L145.017 47.5833L172.113 47.6333L194 31.6667Z" fill="#555555" stroke="white" stroke-width="16.6667" stroke-linecap="round" stroke-linejoin="round"/>
<path d="M164.833 115L185.667 135.833L227.333 94.1667" stroke="white" stroke-width="16.6667" stroke-linecap="round" stroke-linejoin="round"/>
</mask>
<g mask="url(#mask0_46_114)">
<path d="M94 15H294V215H94V15Z" fill="#FFC700"/>
</g>
<path d="M113.453 17.5233C114.108 15.8892 114.437 15.0717 115 15.0717C115.563 15.0717 115.892 15.8883 116.547 17.5233L116.577 17.5983C116.947 18.5225 117.132 18.9842 117.511 19.265C117.887 19.545 118.383 19.59 119.374 19.6783L119.552 19.6942C121.174 19.8392 121.986 19.9117 122.158 20.4275C122.332 20.9442 121.73 21.4917 120.525 22.5867L120.124 22.9533C119.514 23.5075 119.209 23.785 119.067 24.1483C119.041 24.2162 119.018 24.2858 119.001 24.3567C118.908 24.735 118.997 25.1375 119.176 25.9417L119.232 26.1917C119.559 27.6708 119.723 28.41 119.437 28.7292C119.33 28.8482 119.191 28.9338 119.037 28.9758C118.623 29.0892 118.037 28.6108 116.862 27.6542C116.091 27.0258 115.705 26.7117 115.262 26.6408C115.089 26.613 114.911 26.613 114.737 26.6408C114.294 26.7117 113.909 27.0258 113.137 27.6542C111.964 28.6108 111.377 29.0892 110.963 28.9758C110.809 28.9337 110.67 28.848 110.563 28.7292C110.277 28.41 110.441 27.6708 110.768 26.1925L110.824 25.9417C111.002 25.1367 111.092 24.735 110.999 24.3558C110.982 24.285 110.959 24.2154 110.932 24.1475C110.791 23.785 110.486 23.5075 109.876 22.9525L109.474 22.5867C108.27 21.4917 107.667 20.9433 107.841 20.4283C108.015 19.9117 108.826 19.8392 110.447 19.6942L110.626 19.6775C111.617 19.5892 112.112 19.545 112.49 19.2642C112.867 18.9842 113.052 18.5225 113.423 17.5992L113.453 17.5233Z" fill="#FFC700" fill-opacity="0.25" stroke="#FFC700" stroke-width="0.416667"/>
</g>
<path d="M302.227 17.7617C302.554 16.9446 302.718 16.5358 303 16.5358C303.282 16.5358 303.446 16.9442 303.773 17.7617L303.789 17.7992C303.974 18.2612 304.066 18.4921 304.255 18.6325C304.444 18.7725 304.692 18.795 305.187 18.8392L305.276 18.8471C306.087 18.9196 306.493 18.9558 306.579 19.2137C306.666 19.4721 306.365 19.7458 305.762 20.2933L305.562 20.4767C305.257 20.7537 305.105 20.8925 305.034 21.0742C305.02 21.1081 305.009 21.1429 305 21.1783C304.954 21.3675 304.999 21.5687 305.088 21.9708L305.116 22.0958C305.28 22.8354 305.362 23.205 305.219 23.3646C305.165 23.4241 305.096 23.4669 305.018 23.4879C304.812 23.5446 304.518 23.3054 303.931 22.8271C303.545 22.5129 303.352 22.3558 303.131 22.3204C303.044 22.3065 302.956 22.3065 302.869 22.3204C302.647 22.3558 302.455 22.5129 302.069 22.8271C301.482 23.3054 301.188 23.5446 300.982 23.4879C300.905 23.4668 300.835 23.424 300.782 23.3646C300.638 23.205 300.72 22.8354 300.884 22.0962L300.912 21.9708C301.001 21.5683 301.046 21.3675 301 21.1779C300.991 21.1425 300.98 21.1077 300.966 21.0737C300.895 20.8925 300.743 20.7537 300.438 20.4762L300.237 20.2933C299.635 19.7458 299.334 19.4717 299.42 19.2142C299.507 18.9558 299.913 18.9196 300.724 18.8471L300.813 18.8387C301.309 18.7946 301.556 18.7725 301.745 18.6321C301.934 18.4921 302.026 18.2612 302.212 17.7996L302.227 17.7617Z" fill="#FFC700" fill-opacity="0.25" stroke="#FFC700" stroke-width="0.416667"/>
<path d="M322.68 147.285C323.662 144.834 324.155 143.607 325 143.607C325.845 143.607 326.337 144.832 327.32 147.285L327.366 147.397C327.921 148.784 328.199 149.476 328.766 149.897C329.331 150.317 330.075 150.385 331.561 150.517L331.829 150.541C334.261 150.759 335.479 150.867 335.737 151.641C335.999 152.416 335.095 153.237 333.287 154.88L332.686 155.43C331.771 156.261 331.314 156.677 331.101 157.222C331.061 157.324 331.028 157.429 331.001 157.535C330.862 158.102 330.996 158.706 331.264 159.912L331.347 160.287C331.839 162.506 332.085 163.615 331.656 164.094C331.496 164.272 331.287 164.401 331.055 164.464C330.435 164.634 329.555 163.916 327.792 162.481C326.636 161.539 326.057 161.067 325.394 160.961C325.133 160.92 324.867 160.92 324.606 160.961C323.941 161.067 323.364 161.539 322.206 162.481C320.446 163.916 319.565 164.634 318.945 164.464C318.714 164.401 318.505 164.272 318.345 164.094C317.915 163.615 318.161 162.506 318.652 160.289L318.736 159.912C319.004 158.705 319.137 158.102 318.999 157.534C318.972 157.427 318.939 157.323 318.899 157.221C318.686 156.677 318.229 156.261 317.314 155.429L316.711 154.88C314.905 153.237 314.001 152.415 314.261 151.642C314.522 150.867 315.739 150.759 318.171 150.541L318.439 150.516C319.926 150.384 320.669 150.317 321.235 149.896C321.801 149.476 322.079 148.784 322.635 147.399L322.68 147.285Z" fill="#FFC700" fill-opacity="0.25" stroke="#FFC700" stroke-width="0.416667"/>
<path d="M359.227 25.7617C359.554 24.9446 359.718 24.5358 360 24.5358C360.282 24.5358 360.446 24.9442 360.773 25.7617L360.789 25.7992C360.974 26.2612 361.066 26.4921 361.255 26.6325C361.444 26.7725 361.692 26.795 362.187 26.8392L362.276 26.8471C363.087 26.9196 363.493 26.9558 363.579 27.2137C363.666 27.4721 363.365 27.7458 362.762 28.2933L362.562 28.4767C362.257 28.7537 362.105 28.8925 362.034 29.0742C362.02 29.1081 362.009 29.1429 362 29.1783C361.954 29.3675 361.999 29.5687 362.088 29.9708L362.116 30.0958C362.28 30.8354 362.362 31.205 362.219 31.3646C362.165 31.4241 362.096 31.4669 362.018 31.4879C361.812 31.5446 361.518 31.3054 360.931 30.8271C360.545 30.5129 360.352 30.3558 360.131 30.3204C360.044 30.3065 359.956 30.3065 359.869 30.3204C359.647 30.3558 359.455 30.5129 359.069 30.8271C358.482 31.3054 358.188 31.5446 357.982 31.4879C357.905 31.4668 357.835 31.424 357.782 31.3646C357.638 31.205 357.72 30.8354 357.884 30.0962L357.912 29.9708C358.001 29.5683 358.046 29.3675 358 29.1779C357.991 29.1425 357.98 29.1077 357.966 29.0737C357.895 28.8925 357.743 28.7537 357.438 28.4762L357.237 28.2933C356.635 27.7458 356.334 27.4717 356.42 27.2142C356.507 26.9558 356.913 26.9196 357.724 26.8471L357.813 26.8387C358.309 26.7946 358.556 26.7725 358.745 26.6321C358.934 26.4921 359.026 26.2612 359.212 25.7996L359.227 25.7617Z" fill="#FFC700" fill-opacity="0.25" stroke="#FFC700" stroke-width="0.416667"/>
<path d="M41.4533 84.5233C42.1083 82.8892 42.4366 82.0717 43 82.0717C43.5633 82.0717 43.8916 82.8883 44.5466 84.5233L44.5775 84.5983C44.9475 85.5225 45.1325 85.9842 45.5108 86.265C45.8875 86.545 46.3833 86.59 47.3741 86.6783L47.5525 86.6942C49.1741 86.8392 49.9858 86.9117 50.1583 87.4275C50.3325 87.9442 49.73 88.4917 48.525 89.5867L48.1241 89.9533C47.5141 90.5075 47.2091 90.785 47.0675 91.1483C47.0407 91.2162 47.0185 91.2858 47.0008 91.3567C46.9083 91.735 46.9975 92.1375 47.1758 92.9417L47.2316 93.1917C47.5591 94.6708 47.7233 95.41 47.4375 95.7292C47.3303 95.8482 47.1912 95.9338 47.0366 95.9758C46.6233 96.0892 46.0366 95.6108 44.8616 94.6542C44.0908 94.0258 43.705 93.7117 43.2625 93.6408C43.0886 93.613 42.9114 93.613 42.7375 93.6408C42.2941 93.7117 41.9091 94.0258 41.1375 94.6542C39.9641 95.6108 39.3766 96.0892 38.9633 95.9758C38.8091 95.9337 38.6702 95.848 38.5633 95.7292C38.2766 95.41 38.4408 94.6708 38.7683 93.1925L38.8241 92.9417C39.0025 92.1367 39.0916 91.735 38.9991 91.3558C38.9815 91.285 38.9592 91.2154 38.9325 91.1475C38.7908 90.785 38.4858 90.5075 37.8758 89.9525L37.4741 89.5867C36.27 88.4917 35.6675 87.9433 35.8408 87.4283C36.015 86.9117 36.8258 86.8392 38.4475 86.6942L38.6258 86.6775C39.6175 86.5892 40.1125 86.545 40.49 86.2642C40.8675 85.9842 41.0525 85.5225 41.4233 84.5992L41.4533 84.5233Z" fill="#FFC700" fill-opacity="0.25" stroke="#FFC700" stroke-width="0.416667"/>
<path d="M92.4533 192.523C93.1083 190.889 93.4366 190.072 94 190.072C94.5633 190.072 94.8916 190.888 95.5466 192.523L95.5775 192.598C95.9475 193.522 96.1325 193.984 96.5108 194.265C96.8875 194.545 97.3833 194.59 98.3741 194.678L98.5525 194.694C100.174 194.839 100.986 194.912 101.158 195.427C101.332 195.944 100.73 196.492 99.525 197.587L99.1241 197.953C98.5141 198.507 98.2091 198.785 98.0675 199.148C98.0407 199.216 98.0185 199.286 98.0008 199.357C97.9083 199.735 97.9975 200.137 98.1758 200.942L98.2316 201.192C98.5591 202.671 98.7233 203.41 98.4375 203.729C98.3303 203.848 98.1912 203.934 98.0366 203.976C97.6233 204.089 97.0366 203.611 95.8616 202.654C95.0908 202.026 94.705 201.712 94.2625 201.641C94.0886 201.613 93.9114 201.613 93.7375 201.641C93.2941 201.712 92.9091 202.026 92.1375 202.654C90.9641 203.611 90.3766 204.089 89.9633 203.976C89.8091 203.934 89.6702 203.848 89.5633 203.729C89.2766 203.41 89.4408 202.671 89.7683 201.192L89.8241 200.942C90.0025 200.137 90.0916 199.735 89.9991 199.356C89.9815 199.285 89.9592 199.215 89.9325 199.147C89.7908 198.785 89.4858 198.507 88.8758 197.952L88.4741 197.587C87.27 196.492 86.6675 195.943 86.8408 195.428C87.015 194.912 87.8258 194.839 89.4475 194.694L89.6258 194.677C90.6175 194.589 91.1125 194.545 91.49 194.264C91.8675 193.984 92.0525 193.522 92.4233 192.599L92.4533 192.523Z" fill="#FFC700" fill-opacity="0.25" stroke="#FFC700" stroke-width="0.416667"/>
<path d="M370.453 91.5233C371.108 89.8892 371.437 89.0717 372 89.0717C372.563 89.0717 372.892 89.8883 373.547 91.5233L373.577 91.5983C373.947 92.5225 374.132 92.9842 374.511 93.265C374.887 93.545 375.383 93.59 376.374 93.6783L376.552 93.6942C378.174 93.8392 378.986 93.9117 379.158 94.4275C379.332 94.9442 378.73 95.4917 377.525 96.5867L377.124 96.9533C376.514 97.5075 376.209 97.785 376.067 98.1483C376.041 98.2162 376.018 98.2858 376.001 98.3567C375.908 98.735 375.997 99.1375 376.176 99.9417L376.232 100.192C376.559 101.671 376.723 102.41 376.437 102.729C376.33 102.848 376.191 102.934 376.037 102.976C375.623 103.089 375.037 102.611 373.862 101.654C373.091 101.026 372.705 100.712 372.262 100.641C372.089 100.613 371.911 100.613 371.737 100.641C371.294 100.712 370.909 101.026 370.137 101.654C368.964 102.611 368.377 103.089 367.963 102.976C367.809 102.934 367.67 102.848 367.563 102.729C367.277 102.41 367.441 101.671 367.768 100.192L367.824 99.9417C368.002 99.1367 368.092 98.735 367.999 98.3558C367.982 98.285 367.959 98.2154 367.932 98.1475C367.791 97.785 367.486 97.5075 366.876 96.9525L366.474 96.5867C365.27 95.4917 364.667 94.9433 364.841 94.4283C365.015 93.9117 365.826 93.8392 367.447 93.6942L367.626 93.6775C368.617 93.5892 369.112 93.545 369.49 93.2642C369.867 92.9842 370.052 92.5225 370.423 91.5992L370.453 91.5233Z" fill="#FFC700" fill-opacity="0.25" stroke="#FFC700" stroke-width="0.416667"/>
<path d="M4.22666 171.762C4.55416 170.945 4.71832 170.536 4.99999 170.536C5.28166 170.536 5.44582 170.944 5.77332 171.762L5.78874 171.799C5.97374 172.261 6.06624 172.492 6.25541 172.632C6.44374 172.772 6.69166 172.795 7.18707 172.839L7.27624 172.847C8.08707 172.92 8.49291 172.956 8.57916 173.214C8.66624 173.472 8.36499 173.746 7.76249 174.293L7.56207 174.477C7.25707 174.754 7.10457 174.892 7.03374 175.074C7.02036 175.108 7.00923 175.143 7.00041 175.178C6.95416 175.367 6.99874 175.569 7.08791 175.971L7.11582 176.096C7.27957 176.835 7.36166 177.205 7.21874 177.365C7.16517 177.424 7.09559 177.467 7.01832 177.488C6.81166 177.545 6.51832 177.305 5.93082 176.827C5.54541 176.513 5.35249 176.356 5.13124 176.32C5.04429 176.307 4.95569 176.307 4.86874 176.32C4.64707 176.356 4.45457 176.513 4.06874 176.827C3.48207 177.305 3.18832 177.545 2.98166 177.488C2.90454 177.467 2.83511 177.424 2.78166 177.365C2.63832 177.205 2.72041 176.835 2.88416 176.096L2.91207 175.971C3.00124 175.568 3.04582 175.367 2.99957 175.178C2.99075 175.142 2.97962 175.108 2.96624 175.074C2.89541 174.892 2.74291 174.754 2.43791 174.476L2.23707 174.293C1.63499 173.746 1.33374 173.472 1.42041 173.214C1.50749 172.956 1.91291 172.92 2.72374 172.847L2.81291 172.839C3.30874 172.795 3.55624 172.772 3.74499 172.632C3.93374 172.492 4.02624 172.261 4.21166 171.8L4.22666 171.762Z" fill="#FFC700" fill-opacity="0.25" stroke="#FFC700" stroke-width="0.416667"/>
<defs>
<clipPath id="clip0_46_114">
<rect width="10" height="10" fill="white" transform="translate(310 94)"/>
</clipPath>
<clipPath id="clip1_46_114">
<rect width="10" height="10" fill="white" transform="translate(330 40)"/>
</clipPath>
<clipPath id="clip2_46_114">
<rect width="10" height="10" fill="white" transform="translate(369 159)"/>
</clipPath>
<clipPath id="clip3_46_114">
<rect width="10" height="10" fill="white" transform="translate(153 10)"/>
</clipPath>
<clipPath id="clip4_46_114">
<rect width="10" height="10" fill="white" transform="translate(10 126)"/>
</clipPath>
<clipPath id="clip5_46_114">
<rect width="10" height="10" fill="white" transform="translate(77 64)"/>
</clipPath>
<clipPath id="clip6_46_114">
<rect width="200" height="200" fill="white" transform="translate(94 15)"/>
</clipPath>
</defs>
</svg>
