<svg width="30" height="30" viewBox="0 0 30 30" fill="none" xmlns="http://www.w3.org/2000/svg">
<path fill-rule="evenodd" clip-rule="evenodd" d="M5.211 5.21101V5.21551C5.13058 6.12141 5.07306 7.0292 5.0385 7.93801C4.9515 10.128 4.9635 12.7275 5.2515 14.658C5.27498 14.779 5.33646 14.8894 5.427 14.973L17.058 26.604C17.1986 26.7446 17.3894 26.8236 17.5882 26.8236C17.7871 26.8236 17.9779 26.7446 18.1185 26.604L26.604 18.1185C26.7446 17.9779 26.8236 17.7871 26.8236 17.5883C26.8236 17.3894 26.7446 17.1987 26.604 17.058L14.973 5.42701C14.8894 5.33647 14.779 5.27499 14.658 5.25151C12.7275 4.96351 10.128 4.95151 7.938 5.03851C7.02917 5.07272 6.12137 5.13024 5.2155 5.21101H5.211ZM3.885 3.88501C3.7395 4.02301 3.1515 10.7355 3.7695 14.88C3.8355 15.321 4.0545 15.72 4.3695 16.035L15.999 27.666C16.4209 28.0878 16.9931 28.3248 17.5897 28.3248C18.1864 28.3248 18.7586 28.0878 19.1805 27.666L27.666 19.1805C28.0878 18.7586 28.3248 18.1864 28.3248 17.5898C28.3248 16.9931 28.0878 16.4209 27.666 15.999L16.0335 4.36501C15.7228 4.04628 15.3179 3.83593 14.8785 3.76501C10.734 3.14851 4.0215 3.73501 3.8835 3.88201" fill="black"/>
<path fill-rule="evenodd" clip-rule="evenodd" d="M11.364 11.4915C11.2924 11.5607 11.2352 11.6434 11.1959 11.735C11.1566 11.8265 11.1359 11.9249 11.1351 12.0245C11.1342 12.124 11.1532 12.2228 11.1909 12.315C11.2286 12.4071 11.2843 12.4909 11.3547 12.5613C11.4251 12.6317 11.5089 12.6874 11.601 12.7251C11.6932 12.7628 11.792 12.7818 11.8915 12.7809C11.9911 12.7801 12.0895 12.7594 12.181 12.7201C12.2725 12.6808 12.3553 12.6236 12.4245 12.552C12.5611 12.4106 12.6367 12.2211 12.635 12.0245C12.6333 11.8278 12.5544 11.6397 12.4154 11.5006C12.2763 11.3616 12.0882 11.2827 11.8915 11.281C11.6949 11.2793 11.5054 11.3549 11.364 11.4915ZM10.305 13.6125C10.0865 13.4059 9.91156 13.1576 9.79063 12.8822C9.66971 12.6069 9.60522 12.31 9.60096 12.0093C9.59671 11.7086 9.65279 11.4101 9.76587 11.1315C9.87896 10.8528 10.0468 10.5996 10.2594 10.3869C10.472 10.1742 10.7251 10.0063 11.0037 9.89306C11.2823 9.77984 11.5808 9.72362 11.8815 9.72773C12.1822 9.73184 12.479 9.7962 12.7545 9.91699C13.0299 10.0378 13.2783 10.2126 13.485 10.431C13.8877 10.8566 14.1085 11.4224 14.1005 12.0083C14.0925 12.5941 13.8563 13.1537 13.4421 13.5681C13.0279 13.9825 12.4684 14.219 11.8826 14.2273C11.2967 14.2356 10.7307 14.015 10.305 13.6125Z" fill="black"/>
</svg>
