<svg width="50" height="50" viewBox="0 0 50 50" fill="none" xmlns="http://www.w3.org/2000/svg">
<path d="M10.4167 13.5417C12.1426 13.5417 13.5417 12.1426 13.5417 10.4167C13.5417 8.69078 12.1426 7.29167 10.4167 7.29167C8.69078 7.29167 7.29167 8.69078 7.29167 10.4167C7.29167 12.1426 8.69078 13.5417 10.4167 13.5417Z" stroke="black" stroke-width="1.25" stroke-linecap="round"/>
<path d="M10.4167 28.125C12.1426 28.125 13.5417 26.7259 13.5417 25C13.5417 23.2741 12.1426 21.875 10.4167 21.875C8.69078 21.875 7.29167 23.2741 7.29167 25C7.29167 26.7259 8.69078 28.125 10.4167 28.125Z" stroke="black" stroke-width="1.25" stroke-linecap="round"/>
<path d="M10.4167 42.7083C12.1426 42.7083 13.5417 41.3092 13.5417 39.5833C13.5417 37.8574 12.1426 36.4583 10.4167 36.4583C8.69078 36.4583 7.29167 37.8574 7.29167 39.5833C7.29167 41.3092 8.69078 42.7083 10.4167 42.7083Z" stroke="black" stroke-width="1.25" stroke-linecap="round"/>
<path d="M39.5833 7.29167H22.9167C21.1908 7.29167 19.7917 8.69078 19.7917 10.4167C19.7917 12.1426 21.1908 13.5417 22.9167 13.5417H39.5833C41.3092 13.5417 42.7083 12.1426 42.7083 10.4167C42.7083 8.69078 41.3092 7.29167 39.5833 7.29167Z" stroke="black" stroke-width="1.25" stroke-linecap="round"/>
<path d="M39.5833 21.875H22.9167C21.1908 21.875 19.7917 23.2741 19.7917 25C19.7917 26.7259 21.1908 28.125 22.9167 28.125H39.5833C41.3092 28.125 42.7083 26.7259 42.7083 25C42.7083 23.2741 41.3092 21.875 39.5833 21.875Z" stroke="black" stroke-width="1.25" stroke-linecap="round"/>
<path d="M39.5833 36.4583H22.9167C21.1908 36.4583 19.7917 37.8574 19.7917 39.5833C19.7917 41.3092 21.1908 42.7083 22.9167 42.7083H39.5833C41.3092 42.7083 42.7083 41.3092 42.7083 39.5833C42.7083 37.8574 41.3092 36.4583 39.5833 36.4583Z" stroke="black" stroke-width="1.25" stroke-linecap="round"/>
</svg>
