<svg width="30" height="30" viewBox="0 0 30 30" fill="none" xmlns="http://www.w3.org/2000/svg">
<path d="M21.8 11.6625H20.425V8C20.425 6.5612 19.8535 5.18133 18.8361 4.16394C17.8187 3.14656 16.4388 2.575 15 2.575C13.5612 2.575 12.1813 3.14656 11.164 4.16394C10.1466 5.18133 9.57501 6.5612 9.57501 8V11.6625H8.20001C7.37121 11.6625 6.57635 11.9917 5.9903 12.5778C5.40425 13.1638 5.07501 13.9587 5.07501 14.7875V24.3C5.07732 25.1281 5.4073 25.9216 5.99285 26.5072C6.57841 27.0927 7.37192 27.4227 8.20001 27.425H21.8C22.6281 27.4227 23.4216 27.0927 24.0072 26.5072C24.5927 25.9216 24.9227 25.1281 24.925 24.3V14.7875C24.925 13.9587 24.5958 13.1638 24.0097 12.5778C23.4237 11.9917 22.6288 11.6625 21.8 11.6625ZM10.825 8C10.825 6.89272 11.2649 5.83079 12.0478 5.04783C12.8308 4.26486 13.8927 3.825 15 3.825C16.1073 3.825 17.1692 4.26486 17.9522 5.04783C18.7351 5.83079 19.175 6.89272 19.175 8V11.6625H10.825V8ZM23.675 24.3C23.6714 24.7962 23.4727 25.271 23.1219 25.6218C22.771 25.9727 22.2962 26.1714 21.8 26.175H8.20001C7.70384 26.1714 7.22902 25.9727 6.87816 25.6218C6.52731 25.271 6.32861 24.7962 6.32501 24.3V14.7875C6.32501 14.2902 6.52256 13.8133 6.87419 13.4617C7.22582 13.11 7.70273 12.9125 8.20001 12.9125H21.8C22.2973 12.9125 22.7742 13.11 23.1258 13.4617C23.4775 13.8133 23.675 14.2902 23.675 14.7875V24.3Z" fill="black"/>
<path d="M16.25 18.6875C16.2507 18.9061 16.1932 19.1209 16.0834 19.3098C15.9735 19.4987 15.8153 19.655 15.625 19.7625V21.6375C15.625 21.8033 15.5592 21.9622 15.4419 22.0794C15.3247 22.1967 15.1658 22.2625 15 22.2625C14.8342 22.2625 14.6753 22.1967 14.5581 22.0794C14.4409 21.9622 14.375 21.8033 14.375 21.6375V19.7625C14.1847 19.655 14.0265 19.4987 13.9167 19.3098C13.8068 19.1209 13.7493 18.9061 13.75 18.6875C13.75 18.356 13.8817 18.038 14.1161 17.8036C14.3505 17.5692 14.6685 17.4375 15 17.4375C15.3315 17.4375 15.6495 17.5692 15.8839 17.8036C16.1183 18.038 16.25 18.356 16.25 18.6875Z" fill="black"/>
</svg>
