<svg width="30" height="30" viewBox="0 0 30 30" fill="none" xmlns="http://www.w3.org/2000/svg">
<path d="M6.16501 4.28572C5.09941 4.28572 4.07745 4.70903 3.32396 5.46252C2.57046 6.21602 2.14716 7.23798 2.14716 8.30358V20.625C2.14716 21.6906 2.57046 22.7126 3.32396 23.4661C4.07745 24.2196 5.09941 24.6429 6.16501 24.6429H23.8393C24.9049 24.6429 25.9269 24.2196 26.6804 23.4661C27.4338 22.7126 27.8572 21.6906 27.8572 20.625V8.30358C27.8572 7.23798 27.4338 6.21602 26.6804 5.46252C25.9269 4.70903 24.9049 4.28572 23.8393 4.28572H6.16501ZM3.7543 8.30358C3.7543 7.66422 4.00828 7.05104 4.46038 6.59895C4.91248 6.14685 5.52565 5.89286 6.16501 5.89286H23.8393C24.4787 5.89286 25.0918 6.14685 25.5439 6.59895C25.996 7.05104 26.25 7.66422 26.25 8.30358V9.13822L15 14.9004L3.7543 9.14036V8.30358ZM3.7543 10.9468L14.6336 16.5182C14.747 16.5763 14.8726 16.6066 15 16.6066C15.1274 16.6066 15.253 16.5763 15.3664 16.5182L26.25 10.9446V20.6261C26.25 21.2654 25.996 21.8786 25.5439 22.3307C25.0918 22.7828 24.4787 23.0368 23.8393 23.0368H6.16608C5.52672 23.0368 4.91355 22.7828 4.46145 22.3307C4.00936 21.8786 3.75537 21.2654 3.75537 20.6261L3.7543 10.9468Z" fill="black"/>
</svg>
