<svg width="30" height="30" viewBox="0 0 30 30" fill="none" xmlns="http://www.w3.org/2000/svg">
<path d="M18.045 26.1725C15.5535 26.1688 13.1067 25.5111 10.9491 24.2651C8.79163 23.0191 6.99908 21.2284 5.75077 19.0722C4.50246 16.916 3.84214 14.4699 3.83586 11.9784C3.82958 9.48691 4.47756 7.03746 5.71498 4.875C5.87633 4.59531 6.10043 4.35692 6.36963 4.17861C6.63883 4.0003 6.94576 3.88695 7.26623 3.8475C7.59613 3.80188 7.93211 3.8337 8.24758 3.94045C8.56304 4.04719 8.84932 4.22593 9.08373 4.4625L13.0075 8.3875C13.2068 8.5866 13.365 8.82305 13.4729 9.08333C13.5808 9.34361 13.6364 9.62261 13.6364 9.90437C13.6364 10.1861 13.5808 10.4651 13.4729 10.7254C13.365 10.9857 13.2068 11.2221 13.0075 11.4212L12.6387 11.7962C12.1859 12.2502 11.9316 12.8651 11.9316 13.5062C11.9316 14.1474 12.1859 14.7623 12.6387 15.2162L14.7887 17.3675C15.2497 17.8068 15.862 18.0518 16.4987 18.0518C17.1355 18.0518 17.7478 17.8068 18.2087 17.3675L18.5712 17.005C18.974 16.6032 19.5198 16.3775 20.0887 16.3775C20.6577 16.3775 21.2034 16.6032 21.6062 17.005L25.53 20.9287C25.7661 21.1637 25.9445 21.4503 26.0512 21.7659C26.1579 22.0814 26.19 22.4174 26.145 22.7475C26.1051 23.0675 25.9915 23.3739 25.8132 23.6426C25.6349 23.9113 25.3968 24.1351 25.1175 24.2962C22.9651 25.5306 20.5262 26.1776 18.045 26.1725ZM7.55248 5.07875C7.5107 5.07861 7.46895 5.08112 7.42748 5.08625C7.29841 5.10221 7.1748 5.14788 7.06635 5.21967C6.95791 5.29146 6.86759 5.38741 6.80248 5.5C5.38592 7.96992 4.82158 10.8374 5.19654 13.6599C5.57149 16.4824 6.86491 19.1031 8.8772 21.1175C10.8895 23.1319 13.5088 24.4281 16.3309 24.806C19.153 25.184 22.0211 24.6227 24.4925 23.2087C24.605 23.1436 24.7009 23.0532 24.7727 22.9448C24.8445 22.8364 24.8902 22.7128 24.9062 22.5837C24.9253 22.4437 24.9118 22.301 24.8667 22.167C24.8216 22.033 24.7462 21.9113 24.6462 21.8112L20.7225 17.8875C20.6393 17.8043 20.5405 17.7383 20.4317 17.6932C20.323 17.6482 20.2064 17.625 20.0887 17.625C19.971 17.625 19.8545 17.6482 19.7457 17.6932C19.637 17.7383 19.5382 17.8043 19.455 17.8875L19.0925 18.25C18.3936 18.9168 17.4647 19.2888 16.4987 19.2888C15.5328 19.2888 14.6039 18.9168 13.905 18.25L11.75 16.095C11.0638 15.4064 10.6786 14.474 10.6786 13.5019C10.6786 12.5298 11.0638 11.5973 11.75 10.9087L12.125 10.5337C12.2082 10.4505 12.2742 10.3517 12.3193 10.243C12.3643 10.1342 12.3875 10.0177 12.3875 9.9C12.3875 9.7823 12.3643 9.66575 12.3193 9.55701C12.2742 9.44828 12.2082 9.34947 12.125 9.26625L8.19998 5.34625C8.11504 5.26115 8.01409 5.1937 7.90296 5.14779C7.79184 5.10188 7.67272 5.07841 7.55248 5.07875Z" fill="black"/>
</svg>
