<svg width="30" height="30" viewBox="0 0 30 30" fill="none" xmlns="http://www.w3.org/2000/svg">
<path d="M25.7975 17.67L25.735 17.0488L25.7162 17.05L25.695 17.0538L25.7975 17.67ZM25.7975 17.67L25.86 18.2925L25.8813 18.29L25.9013 18.2863L25.7975 17.67ZM20.7475 24.5225L21.1438 24.0388L21.1375 24.035L20.7475 24.5225ZM20.7475 24.5225L20.3512 25.0063L20.3575 25.0113L20.7475 24.5225ZM9.2525 24.5225L8.85625 24.04L8.8475 24.0475L8.8375 24.0563L9.2525 24.5225ZM9.2525 24.5225L9.64875 25.0075L9.65875 24.9988L9.6675 24.9913L9.2525 24.5225ZM4.20125 12.33V11.705H4.17125L4.14 11.7075L4.20125 12.33ZM4.20125 12.33V12.955H4.2325L4.26375 12.9513L4.20125 12.33ZM18.29 4.13875C18.2713 3.91211 18.245 3.68615 18.2113 3.46125C18.1826 3.26225 18.1227 3.06903 18.0338 2.88875L16.9225 3.4625C16.935 3.4875 16.9563 3.5375 16.9775 3.6675C17.0012 3.805 17.0187 3.98375 17.0475 4.2625L18.29 4.13875ZM18.535 5.6425C18.52 5.62375 18.475 5.5475 18.4263 5.28C18.3681 4.90126 18.3243 4.52061 18.2925 4.13875L17.0475 4.2625C17.0975 4.76375 17.1388 5.17875 17.1962 5.50125C17.2525 5.81625 17.34 6.1375 17.5413 6.40125L18.535 5.6425ZM19.115 5.8825C19.0057 5.8972 18.8945 5.88274 18.7927 5.84059C18.6908 5.79844 18.6019 5.7301 18.535 5.6425L17.54 6.4C17.7407 6.66323 18.0076 6.86863 18.3134 6.99531C18.6193 7.12199 18.9532 7.16544 19.2812 7.12125L19.115 5.8825ZM20.35 4.99125C19.9438 5.325 19.6663 5.55125 19.4475 5.7025C19.2237 5.8575 19.1375 5.87875 19.115 5.8825L19.2812 7.12125C19.6087 7.0775 19.8975 6.9125 20.1612 6.72875C20.43 6.54125 20.7512 6.27875 21.1425 5.95875L20.35 4.99125ZM21.415 4.29C21.215 4.35375 21.0462 4.455 20.8862 4.56875C20.7312 4.67875 20.555 4.82375 20.35 4.99125L21.1425 5.95875C21.3587 5.78125 21.4987 5.6675 21.6112 5.5875C21.6671 5.5425 21.7295 5.50625 21.7962 5.48L21.415 4.29ZM22.7312 4.355C22.3148 4.17478 21.8472 4.15169 21.415 4.29L21.7962 5.48C21.94 5.43447 22.0954 5.44246 22.2338 5.5025L22.7312 4.355ZM23.7212 5.16C23.5337 4.9725 23.3725 4.81 23.23 4.685C23.0822 4.54943 22.9138 4.43806 22.7312 4.355L22.2338 5.5025C22.26 5.51375 22.3075 5.54 22.4075 5.6275C22.5113 5.7175 22.6388 5.845 22.8375 6.04375L23.7212 5.16ZM24.8375 6.27625L23.7212 5.16L22.8375 6.04375L23.9538 7.16L24.8375 6.27625ZM25.6425 7.26625C25.559 7.08361 25.4472 6.91529 25.3113 6.7675C25.1863 6.625 25.0238 6.46375 24.8375 6.27625L23.9538 7.16C24.1525 7.35875 24.2787 7.48625 24.3713 7.59C24.4587 7.69 24.4838 7.7375 24.495 7.76375L25.6425 7.26625ZM25.7075 8.5825C25.8458 8.15034 25.8227 7.68268 25.6425 7.26625L24.495 7.76375C24.5546 7.90225 24.5622 8.05763 24.5163 8.20125L25.7075 8.5825ZM25.0062 9.6475C25.1737 9.4425 25.3188 9.26625 25.4288 9.11125C25.5413 8.95125 25.6437 8.7825 25.7075 8.5825L24.5163 8.20125C24.4904 8.26794 24.4546 8.33032 24.41 8.38625C24.2909 8.54615 24.1671 8.70247 24.0388 8.855L25.0062 9.6475ZM24.115 10.8825C24.1187 10.86 24.14 10.7738 24.295 10.55C24.4463 10.3313 24.6725 10.0538 25.0062 9.6475L24.0388 8.855C23.7188 9.24625 23.455 9.5675 23.2687 9.83625C23.085 10.0988 22.92 10.3888 22.8763 10.7163L24.115 10.8825ZM24.355 11.4625C24.2674 11.3956 24.1991 11.3067 24.1569 11.2048C24.1148 11.103 24.1003 10.9918 24.115 10.8825L22.8763 10.7163C22.8323 11.0441 22.8759 11.3778 23.0025 11.6834C23.1292 11.989 23.3345 12.2556 23.5975 12.4563L24.355 11.4625ZM25.8587 11.7063C25.335 11.6538 24.98 11.6188 24.7175 11.5713C24.45 11.5225 24.3737 11.4775 24.355 11.4625L23.5975 12.4563C23.86 12.6563 24.1812 12.7438 24.4975 12.8013C24.8188 12.8588 25.2325 12.9013 25.735 12.9513L25.8587 11.7063ZM27.1087 11.9638C26.9285 11.8748 26.7353 11.8149 26.5363 11.7863C26.3487 11.755 26.1213 11.7325 25.8587 11.7063L25.7337 12.95C26.0138 12.9788 26.1925 12.9963 26.33 13.02C26.4007 13.028 26.4698 13.0465 26.535 13.075L27.1087 11.9638ZM27.9925 12.94C27.8256 12.5184 27.5117 12.1716 27.1087 11.9638L26.535 13.075C26.6694 13.1441 26.7742 13.2596 26.83 13.4L27.9925 12.94ZM28.1238 14.2087C28.1238 13.945 28.1238 13.7163 28.1112 13.5263C28.1028 13.3258 28.0627 13.1279 27.9925 12.94L26.83 13.4C26.84 13.4263 26.855 13.4788 26.8637 13.61C26.8735 13.8098 26.8768 14.0099 26.8738 14.21L28.1238 14.2087ZM28.1238 15.7887V14.2087H26.8738V15.7887H28.1238ZM27.9925 17.0563C28.07 16.8613 28.0988 16.6663 28.1112 16.47C28.1238 16.2812 28.1238 16.0525 28.1238 15.7887H26.8738C26.8738 16.0688 26.8737 16.2488 26.8637 16.3875C26.8631 16.4588 26.8517 16.5296 26.83 16.5975L27.9925 17.0563ZM27.1087 18.0338C27.5119 17.8256 27.8259 17.4783 27.9925 17.0563L26.83 16.5975C26.7742 16.7379 26.6694 16.8534 26.535 16.9225L27.1087 18.0338ZM25.8587 18.2913C26.1213 18.265 26.35 18.2413 26.5363 18.21C26.73 18.1788 26.9213 18.13 27.1075 18.035L26.535 16.9225C26.4698 16.9511 26.4007 16.9696 26.33 16.9775C26.1925 17.0013 26.0138 17.0188 25.735 17.0475L25.8587 18.2913ZM24.3563 18.535C24.375 18.52 24.4513 18.4738 24.7188 18.4263C24.9812 18.3788 25.3363 18.3425 25.8587 18.2913L25.735 17.0475C25.2337 17.0975 24.8188 17.1375 24.4963 17.1963C24.1812 17.2525 23.8612 17.34 23.5975 17.54L24.3563 18.535ZM24.115 19.115C24.1004 19.0056 24.1151 18.8944 24.1575 18.7925C24.1998 18.6906 24.2684 18.6018 24.3563 18.535L23.5975 17.54C23.3343 17.7407 23.1289 18.0076 23.0022 18.3134C22.8755 18.6193 22.8321 18.9532 22.8763 19.2812L24.115 19.115ZM25.0062 20.35C24.7589 20.0574 24.5217 19.7564 24.295 19.4475C24.14 19.225 24.1187 19.1375 24.115 19.115L22.8775 19.2825C22.9212 19.61 23.0863 19.8975 23.2687 20.1613C23.4562 20.4288 23.7188 20.7513 24.0388 21.1413L25.0062 20.35ZM25.7075 21.415C25.643 21.2248 25.549 21.0459 25.4288 20.885C25.2935 20.7023 25.1526 20.5239 25.0062 20.35L24.0388 21.1413C24.2163 21.3588 24.33 21.4975 24.41 21.6112C24.4544 21.6668 24.4903 21.7288 24.5163 21.795L25.7075 21.415ZM25.6425 22.7313C25.8227 22.3148 25.8458 21.8472 25.7075 21.415L24.5163 21.795C24.5625 21.939 24.5549 22.0949 24.495 22.2338L25.6425 22.7313ZM24.8388 23.72C25.025 23.5338 25.1863 23.3725 25.3113 23.23C25.4412 23.0813 25.5588 22.925 25.6425 22.7313L24.495 22.2338C24.4623 22.2972 24.4201 22.3554 24.37 22.4062C24.2356 22.5537 24.0968 22.6971 23.9538 22.8363L24.8388 23.72ZM23.7212 24.8375L24.8388 23.72L23.9538 22.8363L22.8375 23.9538L23.7212 24.8375ZM22.7312 25.6413C22.9237 25.5575 23.0812 25.4413 23.23 25.3113C23.3725 25.1863 23.5337 25.0238 23.7212 24.8363L22.8375 23.9538C22.6388 24.1525 22.5113 24.2788 22.4075 24.37C22.3562 24.4202 22.2977 24.4624 22.2338 24.495L22.7312 25.6413ZM21.415 25.7075C21.8473 25.8454 22.315 25.8219 22.7312 25.6413L22.2338 24.495C22.0953 24.5546 21.9399 24.5622 21.7962 24.5163L21.415 25.7075ZM20.35 25.005C20.555 25.1725 20.7312 25.3175 20.8862 25.4275C21.0462 25.5413 21.215 25.6438 21.415 25.7075L21.7962 24.5163C21.7296 24.4904 21.6672 24.4546 21.6112 24.41C21.4513 24.2905 21.295 24.1663 21.1425 24.0375L20.35 25.005ZM19.115 24.115C19.1375 24.1175 19.225 24.14 19.4475 24.295C19.6663 24.4463 19.9438 24.6725 20.35 25.005L21.1425 24.0375C20.7512 23.7188 20.43 23.455 20.1612 23.2675C19.8988 23.085 19.6087 22.92 19.2812 22.8763L19.115 24.115ZM18.535 24.355C18.6019 24.2674 18.6908 24.1991 18.7927 24.1569C18.8945 24.1148 19.0057 24.1003 19.115 24.115L19.2812 22.8763C18.9535 22.8322 18.6199 22.8755 18.3143 23.002C18.0087 23.1284 17.742 23.3335 17.5413 23.5963L18.535 24.355ZM18.2913 25.8588C18.3438 25.335 18.3787 24.98 18.4263 24.7175C18.475 24.45 18.52 24.3738 18.535 24.355L17.5413 23.5963C17.3413 23.8588 17.2537 24.1813 17.1962 24.4963C17.1388 24.8175 17.0963 25.2313 17.0463 25.7338L18.2913 25.8588ZM18.0338 27.1088C18.13 26.9213 18.1775 26.73 18.21 26.5363C18.2425 26.3488 18.265 26.1213 18.2913 25.8588L17.0463 25.7338C17.0289 25.9332 17.0068 26.132 16.9775 26.33C16.9696 26.4007 16.951 26.4698 16.9225 26.535L18.0338 27.1088ZM17.0575 27.9925C17.4791 27.8256 17.8259 27.5117 18.0338 27.1088L16.9225 26.535C16.8534 26.6694 16.7379 26.7742 16.5975 26.83L17.0575 27.9925ZM15.7887 28.1238C16.0525 28.1238 16.2812 28.1238 16.4713 28.1113C16.6663 28.0988 16.8625 28.07 17.0575 27.9925L16.5975 26.83C16.5296 26.8518 16.4588 26.8631 16.3875 26.8638C16.25 26.8738 16.0688 26.8738 15.7875 26.8738L15.7887 28.1238ZM14.2087 28.1238H15.7887L15.7875 26.8738H14.2087V28.1238ZM12.94 27.9925C13.1363 28.07 13.3312 28.0988 13.5275 28.1113C13.7162 28.1238 13.945 28.1238 14.2087 28.1238V26.8738C13.9287 26.8738 13.7487 26.8738 13.61 26.8638C13.5387 26.8631 13.4679 26.8517 13.4 26.83L12.94 27.9925ZM11.9637 27.1088C12.1716 27.5117 12.5184 27.8256 12.94 27.9925L13.4 26.83C13.2596 26.7742 13.1441 26.6694 13.075 26.535L11.9637 27.1088ZM11.7062 25.8588C11.7325 26.1213 11.7562 26.35 11.7863 26.5363C11.8187 26.73 11.8675 26.9213 11.9637 27.1088L13.075 26.535C13.0465 26.4698 13.028 26.4007 13.02 26.33C12.9907 26.1324 12.9674 25.934 12.95 25.735L11.7062 25.8588ZM11.4625 24.355C11.4775 24.3738 11.5225 24.45 11.5712 24.7175C11.6187 24.98 11.6537 25.3363 11.7062 25.8588L12.95 25.735C12.9 25.2338 12.8588 24.8188 12.8013 24.4963C12.745 24.1813 12.6575 23.86 12.4563 23.5963L11.4625 24.355ZM10.8825 24.115C10.9918 24.1003 11.103 24.1148 11.2048 24.1569C11.3067 24.1991 11.3956 24.2674 11.4625 24.355L12.4563 23.5963C12.2556 23.3332 11.989 23.1292 11.6834 23.0025C11.3778 22.8759 11.0441 22.8323 10.7162 22.8763L10.8825 24.115ZM9.6475 25.0063C10.0538 24.6725 10.3312 24.4463 10.55 24.295C10.7737 24.14 10.86 24.1175 10.8825 24.115L10.7162 22.8763C10.3888 22.92 10.1 23.085 9.83625 23.2688C9.5675 23.455 9.24625 23.7188 8.855 24.0388L9.6475 25.0063ZM8.5825 25.7075C8.7825 25.6438 8.95125 25.5425 9.11125 25.4288C9.26625 25.3188 9.4425 25.1737 9.6475 25.0063L8.855 24.0388C8.70246 24.1671 8.54614 24.2909 8.38625 24.41C8.33034 24.4546 8.26796 24.4904 8.20125 24.5163L8.5825 25.7075ZM7.26625 25.6438C7.68268 25.824 8.15034 25.8458 8.5825 25.7075L8.20125 24.5163C8.05763 24.5622 7.90225 24.5546 7.76375 24.495L7.26625 25.6438ZM6.27625 24.8375C6.46375 25.025 6.625 25.1875 6.7675 25.3125C6.915 25.4413 7.07375 25.56 7.26625 25.6438L7.76375 24.495C7.69982 24.4624 7.64123 24.4203 7.59 24.37C7.44259 24.2355 7.29919 24.0967 7.16 23.9538L6.27625 24.8375ZM5.16 23.7213L6.27625 24.8375L7.16 23.9538L6.04375 22.8375L5.16 23.7213ZM4.355 22.7313C4.43875 22.9238 4.55625 23.0813 4.68625 23.23C4.81125 23.3725 4.97375 23.5338 5.16 23.7213L6.04375 22.8375C5.90036 22.6983 5.76113 22.5549 5.62625 22.4075C5.57603 22.3562 5.53388 22.2977 5.50125 22.2338L4.355 22.7313ZM4.29 21.415C4.15168 21.8472 4.17478 22.3148 4.355 22.7313L5.50125 22.2338C5.44121 22.0954 5.43447 21.94 5.48 21.7963L4.29 21.415ZM4.99125 20.35C4.82375 20.555 4.67875 20.7313 4.56875 20.8862C4.44866 21.0468 4.35459 21.2252 4.29 21.415L5.48 21.7963C5.50625 21.7295 5.5425 21.6671 5.5875 21.6112C5.6675 21.4988 5.78125 21.3587 5.95875 21.1425L4.99125 20.35ZM5.8825 19.115C5.87875 19.1375 5.8575 19.2238 5.7025 19.4475C5.55 19.6663 5.325 19.9438 4.99125 20.35L5.95875 21.1425C6.27875 20.7512 6.5425 20.43 6.72875 20.1613C6.9125 19.8988 7.0775 19.6088 7.12125 19.2812L5.8825 19.115ZM5.6425 18.535C5.7301 18.6019 5.79844 18.6908 5.84059 18.7927C5.88274 18.8945 5.8972 19.0057 5.8825 19.115L7.12125 19.2812C7.16521 18.9534 7.12164 18.6197 6.99497 18.3141C6.8683 18.0085 6.66303 17.7419 6.4 17.5413L5.6425 18.535ZM4.13875 18.2925C4.6625 18.3438 5.0175 18.3788 5.28 18.4263C5.5475 18.475 5.62375 18.52 5.6425 18.535L6.4 17.54C6.1375 17.34 5.81625 17.2525 5.5 17.1963C5.17875 17.1388 4.765 17.0963 4.2625 17.0463L4.13875 18.2925ZM2.88875 18.0338C3.07625 18.13 3.2675 18.1775 3.46125 18.21C3.64875 18.2425 3.875 18.2663 4.13875 18.2925L4.26375 17.0475C4.06434 17.0302 3.8655 17.0068 3.6675 16.9775C3.5968 16.9695 3.52769 16.951 3.4625 16.9225L2.88875 18.0338ZM2.005 17.0563C2.17161 17.4783 2.4856 17.8256 2.88875 18.0338L3.4625 16.9225C3.32811 16.8534 3.22331 16.7379 3.1675 16.5975L2.005 17.0563ZM1.875 15.7913C1.875 16.055 1.875 16.2838 1.8875 16.4738C1.89559 16.6738 1.93568 16.8713 2.00625 17.0588L3.16875 16.6C3.14702 16.5321 3.13564 16.4613 3.135 16.39C3.12571 16.1901 3.12238 15.9901 3.125 15.79L1.875 15.7913ZM1.875 14.2113V15.7913H3.125V14.2113H1.875ZM2.00625 12.9425C1.93595 13.1309 1.89588 13.3291 1.8875 13.53C1.875 13.7188 1.875 13.9475 1.875 14.2113H3.125C3.125 13.9313 3.125 13.7513 3.135 13.6125C3.1356 13.5412 3.14698 13.4704 3.16875 13.4025L2.00625 12.9425ZM2.89 11.9663C2.48707 12.1741 2.17311 12.5209 2.00625 12.9425L3.16875 13.4025C3.22456 13.2621 3.32936 13.1466 3.46375 13.0775L2.89 11.9663ZM4.14 11.7075C3.8775 11.7338 3.64875 11.7588 3.4625 11.7888C3.2635 11.8174 3.07028 11.8773 2.89 11.9663L3.46375 13.0775C3.48875 13.065 3.53875 13.0438 3.66875 13.0225C3.80625 12.9988 3.985 12.9813 4.26375 12.9525L4.14 11.7075ZM5.64375 11.465C5.625 11.48 5.54875 11.525 5.28125 11.5738C5.01875 11.6213 4.66375 11.655 4.14 11.7075L4.26375 12.9525C4.765 12.9025 5.18125 12.8613 5.5025 12.8038C5.81875 12.7475 6.14 12.66 6.4025 12.4588L5.64375 11.465ZM5.88375 10.885C5.89845 10.9943 5.88399 11.1055 5.84184 11.2073C5.79969 11.3092 5.73135 11.3981 5.64375 11.465L6.4025 12.4588C6.6653 12.258 6.87033 11.9913 6.99678 11.6857C7.12323 11.3801 7.1666 11.0453 7.1225 10.7175L5.88375 10.885ZM4.9925 9.64875C5.32625 10.0563 5.5525 10.3338 5.705 10.5525C5.86 10.7763 5.88 10.8625 5.88375 10.885L7.1225 10.7175C7.07875 10.39 6.91375 10.1025 6.73 9.83875C6.54375 9.57 6.28 9.24875 5.96 8.8575L4.9925 9.64875ZM4.29125 8.58375C4.35375 8.78375 4.45625 8.95375 4.57 9.11375C4.68 9.2675 4.825 9.445 4.9925 9.64875L5.96 8.8575C5.83162 8.70455 5.70781 8.54782 5.58875 8.3875C5.54385 8.33202 5.50761 8.27007 5.48125 8.20375L4.29125 8.58375ZM4.35625 7.26875C4.17634 7.68482 4.15325 8.15197 4.29125 8.58375L5.48125 8.20375C5.43572 8.05998 5.44371 7.90459 5.50375 7.76625L4.35625 7.26875ZM5.16125 6.27875C4.97375 6.465 4.81125 6.62625 4.68625 6.77C4.55069 6.91785 4.43932 7.08617 4.35625 7.26875L5.50375 7.76625C5.53647 7.70277 5.57862 7.64336 5.62875 7.5925C5.76266 7.44456 5.90149 7.30115 6.045 7.1625L5.16125 6.27875ZM6.2775 5.16125L5.16125 6.27875L6.045 7.1625L7.16125 6.045L6.2775 5.16125ZM7.2675 4.3575C7.08497 4.44067 6.91667 4.55203 6.76875 4.6875C6.62625 4.8125 6.46375 4.97375 6.2775 5.16125L7.16125 6.045C7.36 5.8475 7.4875 5.72 7.59125 5.62875C7.69125 5.54125 7.73875 5.51625 7.765 5.50375L7.2675 4.3575ZM8.58375 4.29125C8.15144 4.15333 7.68378 4.17687 7.2675 4.3575L7.765 5.50375C7.90334 5.44371 8.05873 5.43697 8.2025 5.4825L8.58375 4.29125ZM9.64875 4.99375C9.44375 4.82625 9.2675 4.68125 9.1125 4.57125C8.95209 4.45067 8.77364 4.35617 8.58375 4.29125L8.2025 5.4825C8.26918 5.50836 8.33156 5.54419 8.3875 5.58875C8.5 5.67 8.64 5.78375 8.8575 5.96125L9.64875 4.99375ZM10.8837 5.885C10.8612 5.88125 10.775 5.86 10.5513 5.705C10.2423 5.47795 9.9413 5.24156 9.64875 4.99375L8.8575 5.96125C9.2475 6.28125 9.57 6.545 9.8375 6.73125C10.1 6.91375 10.39 7.07875 10.7175 7.12375L10.8837 5.885ZM11.4637 5.64375C11.397 5.73158 11.3081 5.80016 11.2063 5.84254C11.1044 5.88491 10.9931 5.89956 10.8837 5.885L10.7175 7.12375C11.0455 7.16808 11.3793 7.12357 11.6851 6.99711C11.991 6.87066 12.2579 6.6655 12.4587 6.4025L11.4637 5.64375ZM11.7075 4.14125C11.655 4.66375 11.62 5.02 11.5725 5.28125C11.5238 5.54875 11.4787 5.625 11.4637 5.64375L12.4587 6.4025C12.6587 6.14 12.7462 5.81875 12.8025 5.5025C12.86 5.18125 12.9025 4.7675 12.9525 4.265L11.7075 4.14125ZM11.965 2.89125C11.8687 3.07875 11.82 3.27 11.7875 3.46375C11.7563 3.65125 11.7338 3.8775 11.7075 4.14125L12.9513 4.26625C12.9686 4.06684 12.9919 3.868 13.0212 3.67C13.0291 3.59928 13.0477 3.53017 13.0763 3.465L11.965 2.89125ZM12.9425 2.0075C12.5203 2.17442 12.1729 2.48763 11.965 2.89125L13.0763 3.465C13.1454 3.33061 13.2608 3.22581 13.4012 3.17L12.9425 2.0075ZM14.21 1.87625C13.9462 1.87625 13.7175 1.87625 13.5275 1.88875C13.3274 1.89684 13.1299 1.93693 12.9425 2.0075L13.4012 3.17C13.4691 3.14823 13.5399 3.13685 13.6112 3.13625C13.7487 3.12625 13.93 3.12625 14.2113 3.12625L14.21 1.87625ZM15.79 1.87625H14.21V3.12625H15.79V1.87625ZM17.0588 2.0075C16.8704 1.93718 16.6721 1.89711 16.4713 1.88875C16.2825 1.87625 16.0538 1.87625 15.79 1.87625V3.12625C16.07 3.12625 16.25 3.12625 16.3888 3.13625C16.46 3.13726 16.5308 3.14863 16.5988 3.17L17.0588 2.0075ZM18.035 2.89125C17.8268 2.4881 17.4795 2.17411 17.0575 2.0075L16.5988 3.17C16.7392 3.22581 16.8546 3.33061 16.9237 3.465L18.035 2.89125ZM19.375 15C19.375 16.1603 18.9141 17.2731 18.0936 18.0936C17.2731 18.9141 16.1603 19.375 15 19.375V20.625C16.4918 20.625 17.9226 20.0324 18.9775 18.9775C20.0324 17.9226 20.625 16.4918 20.625 15H19.375ZM15 10.625C16.1603 10.625 17.2731 11.0859 18.0936 11.9064C18.9141 12.7269 19.375 13.8397 19.375 15H20.625C20.625 13.5082 20.0324 12.0774 18.9775 11.0225C17.9226 9.96763 16.4918 9.375 15 9.375V10.625ZM10.625 15C10.625 13.8397 11.0859 12.7269 11.9064 11.9064C12.7269 11.0859 13.8397 10.625 15 10.625V9.375C13.5082 9.375 12.0774 9.96763 11.0225 11.0225C9.96763 12.0774 9.375 13.5082 9.375 15H10.625ZM15 19.375C13.8397 19.375 12.7269 18.9141 11.9064 18.0936C11.0859 17.2731 10.625 16.1603 10.625 15H9.375C9.375 16.4918 9.96763 17.9226 11.0225 18.9775C12.0774 20.0324 13.5082 20.625 15 20.625V19.375Z" fill="#FF8A00"/>
</svg>
