<svg width="30" height="30" viewBox="0 0 30 30" fill="none" xmlns="http://www.w3.org/2000/svg">
<path d="M21.7975 27.4213H8.20251C7.37371 27.4213 6.57886 27.092 5.99281 26.506C5.40675 25.9199 5.07751 25.1251 5.07751 24.2963V23.2625C5.07751 18.3013 9.52877 14.2625 15 14.2625C20.4713 14.2625 24.9225 18.2988 24.9225 23.2625V24.2963C24.9225 25.1251 24.5933 25.9199 24.0072 26.506C23.4212 27.092 22.6263 27.4213 21.7975 27.4213ZM15 15.515C10.2175 15.515 6.32751 18.99 6.32751 23.265V24.2988C6.32751 24.796 6.52506 25.2729 6.87669 25.6246C7.22832 25.9762 7.70523 26.1738 8.20251 26.1738H21.7975C22.2948 26.1738 22.7717 25.9762 23.1233 25.6246C23.475 25.2729 23.6725 24.796 23.6725 24.2988V23.2625C23.6725 18.99 19.7825 15.515 15 15.515ZM15 12.3888C14.0298 12.389 13.0814 12.1015 12.2746 11.5627C11.4678 11.0239 10.8389 10.2579 10.4675 9.36168C10.0961 8.46543 9.99874 7.47916 10.1879 6.5276C10.377 5.57604 10.844 4.70194 11.53 4.01584C12.2159 3.32973 13.0899 2.86245 14.0414 2.67309C14.9929 2.48373 15.9792 2.58079 16.8755 2.952C17.7719 3.32322 18.538 3.9519 19.077 4.75855C19.6161 5.5652 19.9038 6.51358 19.9038 7.48375C19.9028 8.78412 19.3859 10.031 18.4665 10.9506C17.5471 11.8702 16.3004 12.3874 15 12.3888ZM15 3.83C14.277 3.82976 13.5702 4.04394 12.9689 4.44546C12.3677 4.84698 11.899 5.4178 11.6222 6.08572C11.3454 6.75363 11.2729 7.48863 11.4139 8.19775C11.5549 8.90687 11.9031 9.55824 12.4143 10.0695C12.9255 10.5807 13.5769 10.9288 14.286 11.0698C14.9951 11.2108 15.7301 11.1383 16.3981 10.8615C17.066 10.5847 17.6368 10.1161 18.0383 9.51483C18.4398 8.91358 18.654 8.20675 18.6538 7.48375C18.6528 6.51502 18.2675 5.58625 17.5825 4.90126C16.8975 4.21626 15.9687 3.831 15 3.83Z" fill="black"/>
</svg>
